<?xml version="1.0" encoding="utf-8"?>
<!-- Generator: Adobe Illustrator 22.0.1, SVG Export Plug-In . SVG Version: 6.00 Build 0)  -->
<svg version="1.1" id="Layer_1" xmlns="http://www.w3.org/2000/svg" xmlns:xlink="http://www.w3.org/1999/xlink" x="0px" y="0px"
	 viewBox="0 0 136 66.4" style="enable-background:new 0 0 136 66.4;" xml:space="preserve">
<style type="text/css">
	.st0{fill:#181818;}
</style>
<g>
	<g>
		<path class="st0" d="M130.8,61.9H5.3c-0.4,0-0.8-0.3-0.8-0.8V5.3c0-0.4,0.3-0.8,0.8-0.8h125.5c0.4,0,0.8,0.3,0.8,0.8v55.8
			C131.6,61.6,131.3,61.9,130.8,61.9z M6.1,60.4h124V6.1H6.1V60.4z"/>
	</g>
	<g>
		<path class="st0" d="M121.4,66.5H14.8c-0.4,0-0.8-0.3-0.8-0.8c0-7.3-6-13.3-13.3-13.3c-0.4,0-0.8-0.3-0.8-0.8V14.8
			C0,14.4,0.3,14,0.8,14C8.1,14,14,8.1,14,0.8C14,0.3,14.4,0,14.8,0h106.6c0.4,0,0.8,0.3,0.8,0.8c0,7.3,6,13.3,13.3,13.3
			c0.4,0,0.8,0.3,0.8,0.8v36.9c0,0.4-0.3,0.8-0.8,0.8c-7.3,0-13.3,6-13.3,13.3C122.1,66.1,121.8,66.5,121.4,66.5z M15.5,65h105.1
			c0.4-7.6,6.5-13.6,14-14V15.5c-7.6-0.4-13.6-6.5-14-14H15.5c-0.4,7.6-6.5,13.6-14,14v35.4C9.1,51.3,15.1,57.4,15.5,65z"/>
	</g>
</g>
</svg>
