<?xml version="1.0" encoding="utf-8"?>
<!-- Generator: Adobe Illustrator 16.0.0, SVG Export Plug-In . SVG Version: 6.00 Build 0)  -->
<!DOCTYPE svg PUBLIC "-//W3C//DTD SVG 1.1//EN" "http://www.w3.org/Graphics/SVG/1.1/DTD/svg11.dtd">
<svg version="1.1" id="Layer_1" xmlns="http://www.w3.org/2000/svg" xmlns:xlink="http://www.w3.org/1999/xlink" x="0px" y="0px"
	 width="45.502px" height="30.002px" viewBox="0 0 45.502 30.002" enable-background="new 0 0 45.502 30.002" xml:space="preserve">
<g>
	<path fill="#C18243" d="M32.943,16.172c-3.009-1.076-5.772,2.367-3.583,4.212c1.741-4.212,5.135-1.739,3.624,1.018
		c-1.421,2.597-4.267,2.634-6.148,1.593c-0.771-0.426-2.036-1.487-2.501-3.14c-0.235,0.023-0.471-0.012-0.707,0
		c0.304,1.57,1.226,2.904,2.841,3.838c3.338,1.936,6.204,1.26,7.958-0.593c2.297-2.313,5.204-0.196,4.391,0.591
		c-0.806-0.748-2.063,0.276-1.892,1.127c0.256,1.275,1.408,1.609,2.603,1.504c1.567-0.143,2.848-2.447,1.823-4.098
		c-0.962-1.547-3.598-2.681-6.107-1.071C36.094,19.312,35.492,17.085,32.943,16.172z"/>
	<path fill="#C18243" d="M12.563,16.172c3.009-1.076,5.776,2.367,3.585,4.212c-1.744-4.212-5.138-1.739-3.627,1.018
		c1.423,2.597,4.269,2.634,6.153,1.593c0.771-0.426,2.036-1.487,2.502-3.14c0.235,0.023,0.471-0.012,0.707,0
		c-0.302,1.57-1.226,2.904-2.842,3.838c-3.34,1.936-6.208,1.26-7.962-0.593c-2.297-2.313-5.207-0.196-4.391,0.591
		c0.805-0.748,2.063,0.276,1.891,1.127c-0.254,1.275-1.409,1.609-2.603,1.504c-1.569-0.143-2.85-2.447-1.825-4.098
		c0.962-1.547,3.599-2.681,6.11-1.071C9.41,19.312,10.012,17.085,12.563,16.172z"/>
	<path fill="#C18243" d="M21.241,14.612c0.384,0.715,0.812,1.387,1.003,2.192c-0.206,0.019-0.408-0.027-0.605,0
		c-0.172-0.605-0.484-1.104-0.941-1.76c-2.639-3.789-7.282-2.737-8.429,0.198c-0.615-2.141,0.521-3.732,1.98-4.158
		C15.793,10.633,19.109,10.624,21.241,14.612z"/>
	<path fill="#C18243" d="M24.265,14.612c-0.384,0.715-0.812,1.387-1.002,2.192c0.205,0.019,0.407-0.027,0.605,0
		c0.17-0.605,0.483-1.104,0.939-1.76c2.64-3.789,7.281-2.737,8.429,0.198c0.614-2.141-0.521-3.732-1.98-4.158
		C29.713,10.633,26.396,10.624,24.265,14.612z"/>
	<path fill="#C18243" d="M21.704,22.127c-0.952,2.66-3.257,4.153-4.777,4.792c2.627-0.309,4.327-2.73,4.85-3.716
		c0.039-0.059,0.097-0.048,0.092-0.009c-0.707,3.342-2.467,5.009-3.865,5.678c-1.943,0.93-3.407-0.192-3.202-0.843
		c-2.275,0.692-3.897-1.697-1.718-3.149c0.022-0.017,0.041-0.029,0.055-0.017c1.155,1.049,5.616,0.793,8.479-2.762
		C21.646,22.05,21.739,22.059,21.704,22.127z"/>
	<path fill="#C18243" d="M23.885,22.127c0.952,2.66,3.257,4.153,4.777,4.792c-2.629-0.309-4.327-2.73-4.85-3.716
		c-0.039-0.059-0.098-0.048-0.093-0.009c0.708,3.342,2.468,5.009,3.866,5.678c1.943,0.93,3.406-0.192,3.203-0.843
		c2.274,0.692,3.897-1.697,1.717-3.149c-0.022-0.017-0.041-0.029-0.056-0.017c-1.155,1.049-5.616,0.793-8.479-2.762
		C23.942,22.05,23.85,22.059,23.885,22.127z"/>
	<path fill="#C18243" d="M24.361,27.435c0.092-0.623-1.439-4.201-1.607-4.401c-0.194,0.237-1.703,3.778-1.608,4.401
		c0.084,0.572,1.414,2.404,1.608,2.565C22.959,29.824,24.275,28.007,24.361,27.435z"/>
	<path fill="#C18243" d="M15.809,9.505c0.026,0.127,0.106,0.202,0.238,0.181c3.259-0.546,5.868,3.038,6.602,5.583
		c0.055,0.18,0.148,0.159,0.211,0c0.731-2.545,3.34-6.129,6.599-5.583c0.131,0.021,0.213-0.054,0.238-0.181
		c0.464-2.254-2.867-4.161-5.348-2.551c1.501-1.79,0.841-2.847,0.194-3.755c-0.133-0.189-1.426-2.559-1.751-3.185
		c-0.027-0.021-0.055-0.021-0.078,0C22.39,0.641,21.096,3.011,20.961,3.2c-0.646,0.908-1.306,1.965,0.195,3.755
		C18.675,5.345,15.346,7.251,15.809,9.505z"/>
	<path fill="#C18243" d="M26.039,18.357c0-0.655-0.582-1.186-1.301-1.186h-3.972c-0.719,0-1.299,0.53-1.299,1.186
		c0,0.654,0.581,1.186,1.299,1.186h3.972C25.457,19.543,26.039,19.012,26.039,18.357z"/>
</g>
</svg>
