<?xml version="1.0" encoding="utf-8"?>
<!-- Generator: Adobe Illustrator 22.0.1, SVG Export Plug-In . SVG Version: 6.00 Build 0)  -->
<svg version="1.1" id="Layer_1" xmlns="http://www.w3.org/2000/svg" xmlns:xlink="http://www.w3.org/1999/xlink" x="0px" y="0px"
	 viewBox="0 0 134.9 138.3" style="enable-background:new 0 0 134.9 138.3;" xml:space="preserve">
<style type="text/css">
	.st0{fill:none;}
	.st1{fill:#DBBF91;}
</style>
<g>
	<path class="st0" d="M67.5,2.2L1.6,69.1L67.5,136l65.9-66.9L67.5,2.2z M62.5,120.9c0,0.4-0.3,0.8-0.6,0.9c-0.4,0.2-0.8,0.1-1.1-0.2
		L15,76c-0.3-0.3-0.4-0.7-0.2-1.1s0.5-0.6,0.9-0.6h38.1c0.6,0,1,0.5,1,1v28c0,0.4-0.3,0.8-0.6,0.9c-0.4,0.2-0.8,0.1-1.1-0.2
		L31.7,82.5c-0.3-0.3-0.4-0.7-0.2-1.1c0.2-0.4,0.5-0.6,0.9-0.6h13.8c0.6,0,1,0.5,1,1V88c0,0.4-0.3,0.8-0.6,0.9
		c-0.4,0.2-0.8,0.1-1.1-0.2l-3.2-3.2c-0.4-0.4-0.4-1.1,0-1.5s1.1-0.4,1.5,0l1.5,1.5v-2.7H34.9l18,18V76.3H18.2l42.2,42.2V71.3l0,0
		V19.8L18.2,62h34.6V37.6l-18,18h10.3v-2.7l-1.5,1.5c-0.4,0.4-1.1,0.4-1.5,0s-0.4-1.1,0-1.5l3.2-3.2c0.3-0.3,0.7-0.4,1.1-0.2
		c0.4,0.2,0.6,0.5,0.6,0.9v6.2c0,0.6-0.5,1-1,1H32.4c-0.4,0-0.8-0.3-0.9-0.6c-0.2-0.4-0.1-0.8,0.2-1.1l21.5-21.5
		c0.3-0.3,0.7-0.4,1.1-0.2c0.4,0.2,0.6,0.5,0.6,0.9v28c0,0.6-0.5,1-1,1H15.7c-0.4,0-0.8-0.3-0.9-0.6c-0.2-0.4-0.1-0.8,0.2-1.1
		l45.7-45.7c0.3-0.3,0.7-0.4,1.1-0.2c0.4,0.2,0.6,0.5,0.6,0.9V67l0,0v53.9H62.5z M63,11.4l3.7-3.7l0,0c0.1-0.1,0.2-0.2,0.3-0.2l0,0
		l0,0c0.1,0,0.2-0.1,0.3-0.1h0.1c0.1,0,0.2,0,0.3,0h0.1c0.1,0,0.2,0.1,0.3,0.2l3.7,3.7c0.4,0.4,0.4,1.1,0,1.5s-1.1,0.4-1.5,0l-2-2
		V37c0,0.6-0.5,1-1,1c-0.6,0-1-0.5-1-1V10.9l-1.9,1.9c-0.4,0.4-1.1,0.4-1.5,0c-0.2-0.2-0.3-0.5-0.3-0.7C62.7,11.9,62.8,11.6,63,11.4
		z M66.4,71.3V52.6c0-0.6,0.5-1,1-1s1,0.5,1,1V67l0,0v18.7c0,0.6-0.5,1-1,1s-1-0.5-1-1V71.3L66.4,71.3z M67.5,48.3
		c-1.4,0-2.6-1.2-2.6-2.6c0-1.4,1.2-2.6,2.6-2.6s2.6,1.2,2.6,2.6S68.9,48.3,67.5,48.3z M67.5,90c1.4,0,2.6,1.2,2.6,2.6
		s-1.2,2.6-2.6,2.6s-2.6-1.2-2.6-2.6S66.1,90,67.5,90z M71.9,126.9l-3.7,3.7l0,0c-0.1,0.1-0.2,0.2-0.3,0.2l0,0l0,0
		c-0.1,0-0.2,0.1-0.3,0.1h-0.1c-0.1,0-0.2,0-0.3,0h-0.1c-0.1,0-0.2-0.1-0.3-0.2l-3.7-3.7c-0.4-0.4-0.4-1.1,0-1.5s1.1-0.4,1.5,0l2,2
		v-26.1c0-0.6,0.5-1,1-1c0.6,0,1,0.5,1,1v26.1l1.9-1.9c0.4-0.4,1.1-0.4,1.5,0c0.2,0.2,0.3,0.5,0.3,0.7
		C72.2,126.4,72.1,126.7,71.9,126.9z M74.3,121.7c-0.3,0.3-0.7,0.4-1.1,0.2c-0.4-0.2-0.6-0.5-0.6-0.9V71.3l0,0V17.4
		c0-0.4,0.3-0.8,0.6-0.9c0.4-0.2,0.8-0.1,1.1,0.2L120,62.4c0.3,0.3,0.4,0.7,0.2,1.1c-0.2,0.4-0.5,0.6-0.9,0.6H81.1c-0.6,0-1-0.5-1-1
		v-28c0-0.4,0.3-0.8,0.6-0.9c0.4-0.2,0.8-0.1,1.1,0.2l21.5,21.5c0.3,0.3,0.4,0.7,0.2,1.1c-0.2,0.4-0.5,0.6-0.9,0.6H88.8
		c-0.6,0-1-0.5-1-1v-6.2c0-0.4,0.3-0.8,0.6-0.9c0.4-0.2,0.8-0.1,1.1,0.2l3.2,3.2c0.4,0.4,0.4,1.1,0,1.5s-1.1,0.4-1.5,0l-1.5-1.5v2.7
		H100l-18-18V62h34.6l-42-42.2V67l0,0v51.5l42.2-42.2H82.1v24.5l18-18H89.8v2.7l1.5-1.5c0.4-0.4,1.1-0.4,1.5,0s0.4,1.1,0,1.5
		l-3.2,3.2c-0.3,0.3-0.7,0.4-1.1,0.2c-0.4-0.2-0.6-0.5-0.6-0.9v-6.2c0-0.6,0.5-1,1-1h13.8c0.4,0,0.8,0.3,0.9,0.6
		c0.2,0.4,0.1,0.8-0.2,1.1L81.8,104c-0.3,0.3-0.7,0.4-1.1,0.2c-0.4-0.2-0.6-0.5-0.6-0.9v-28c0-0.6,0.5-1,1-1h38.1
		c0.4,0,0.8,0.3,0.9,0.6c0.2,0.4,0.1,0.8-0.2,1.1L74.3,121.7z"/>
	<path class="st1" d="M64.5,12.9l1.9-1.9v26c0,0.6,0.5,1,1,1c0.6,0,1-0.5,1-1V10.9l2,2c0.4,0.4,1.1,0.4,1.5,0s0.4-1.1,0-1.5
		l-3.7-3.7c-0.1-0.1-0.2-0.2-0.3-0.2h-0.1c-0.1,0-0.2,0-0.3,0h-0.1c-0.1,0-0.2,0-0.3,0.1l0,0l0,0c-0.1,0-0.2,0.1-0.3,0.2l0,0
		L63,11.4c-0.2,0.2-0.3,0.5-0.3,0.7c0,0.3,0.1,0.5,0.3,0.7C63.4,13.3,64.1,13.3,64.5,12.9z"/>
	<path class="st1" d="M70.1,45.7c0-1.4-1.2-2.6-2.6-2.6s-2.6,1.2-2.6,2.6c0,1.4,1.2,2.6,2.6,2.6S70.1,47.1,70.1,45.7z"/>
	<path class="st1" d="M62.5,17.4c0-0.4-0.3-0.8-0.6-0.9c-0.4-0.2-0.8-0.1-1.1,0.2L15,62.3c-0.3,0.3-0.4,0.7-0.2,1.1
		c0.2,0.4,0.5,0.6,0.9,0.6h38.1c0.6,0,1-0.5,1-1V35c0-0.4-0.2-0.8-0.6-0.9c-0.4-0.2-0.8-0.1-1.1,0.2L31.7,55.8
		c-0.3,0.3-0.4,0.7-0.2,1.1c0.2,0.4,0.5,0.6,0.9,0.6h13.8c0.6,0,1-0.5,1-1v-6.2c0-0.4-0.2-0.8-0.6-0.9c-0.4-0.2-0.8-0.1-1.1,0.2
		l-3.2,3.2c-0.4,0.4-0.4,1.1,0,1.5s1.1,0.4,1.5,0l1.5-1.5v2.7H34.9l18-18V62H18.2l42.2-42.2v51.5l0,0v47.1L18.2,76.3h34.6v24.5
		l-18-18h10.3v2.7L43.7,84c-0.4-0.4-1.1-0.4-1.5,0s-0.4,1.1,0,1.5l3.2,3.2c0.3,0.3,0.7,0.4,1.1,0.2c0.4-0.2,0.6-0.5,0.6-0.9v-6.2
		c0-0.6-0.5-1-1-1H32.4c-0.4,0-0.8,0.3-0.9,0.6c-0.2,0.4-0.1,0.8,0.2,1.1L53.2,104c0.3,0.3,0.7,0.4,1.1,0.2c0.4-0.2,0.6-0.5,0.6-0.9
		v-28c0-0.6-0.5-1-1-1H15.7c-0.4,0-0.8,0.3-0.9,0.6c-0.2,0.4-0.1,0.8,0.2,1.1l45.7,45.7c0.3,0.3,0.7,0.4,1.1,0.2
		c0.4-0.2,0.6-0.5,0.6-0.9V67l0,0V17.4H62.5z"/>
	<path class="st1" d="M70.5,125.4l-1.9,1.9v-26.1c0-0.6-0.5-1-1-1c-0.6,0-1,0.5-1,1v26.1l-2-2c-0.4-0.4-1.1-0.4-1.5,0
		s-0.4,1.1,0,1.5l3.7,3.7c0.1,0.1,0.2,0.2,0.3,0.2h0.1c0.1,0,0.2,0,0.3,0h0.1c0.1,0,0.2,0,0.3-0.1l0,0l0,0c0.1,0,0.2-0.1,0.3-0.2
		l0,0l3.7-3.7c0.2-0.2,0.3-0.5,0.3-0.7c0-0.3-0.1-0.5-0.3-0.7C71.5,125,70.9,125,70.5,125.4z"/>
	<path class="st1" d="M67.5,86.7c0.6,0,1-0.5,1-1V67l0,0V52.6c0-0.6-0.5-1-1-1s-1,0.5-1,1v18.7l0,0v14.4
		C66.5,86.2,66.9,86.7,67.5,86.7z"/>
	<path class="st1" d="M67.5,95.2c1.4,0,2.6-1.2,2.6-2.6S68.9,90,67.5,90s-2.6,1.2-2.6,2.6C64.9,94.1,66.1,95.2,67.5,95.2z"/>
	<path class="st1" d="M120.2,74.9c-0.2-0.4-0.5-0.6-0.9-0.6H81.1c-0.6,0-1,0.5-1,1v28c0,0.4,0.2,0.8,0.6,0.9
		c0.4,0.2,0.8,0.1,1.1-0.2l21.5-21.5c0.3-0.3,0.4-0.7,0.2-1.1c-0.2-0.4-0.5-0.6-0.9-0.6H88.8c-0.6,0-1,0.5-1,1V88
		c0,0.4,0.2,0.8,0.6,0.9c0.4,0.2,0.8,0.1,1.1-0.2l3.2-3.2c0.4-0.4,0.4-1.1,0-1.5s-1.1-0.4-1.5,0l-1.5,1.5v-2.7H100l-18,18V76.3h34.6
		l-42.2,42.2V67l0,0V19.8L116.7,62H82.1V37.6l18,18H89.8v-2.7l1.5,1.5c0.4,0.4,1.1,0.4,1.5,0s0.4-1.1,0-1.5l-3.2-3.2
		c-0.3-0.3-0.7-0.4-1.1-0.2s-0.6,0.5-0.6,0.9v6.2c0,0.6,0.5,1,1,1h13.8c0.4,0,0.8-0.3,0.9-0.6c0.2-0.4,0.1-0.8-0.2-1.1L81.8,34.3
		c-0.3-0.3-0.7-0.4-1.1-0.2s-0.6,0.5-0.6,0.9v28c0,0.6,0.5,1,1,1h38.1c0.4,0,0.8-0.3,0.9-0.6c0.2-0.4,0.1-0.8-0.2-1.1L74.3,16.6
		c-0.3-0.3-0.7-0.4-1.1-0.2c-0.4,0.2-0.6,0.5-0.6,0.9v53.9l0,0v49.6c0,0.4,0.3,0.8,0.6,0.9c0.4,0.2,0.8,0.1,1.1-0.2L119.9,76
		C120.2,75.7,120.3,75.2,120.2,74.9z"/>
</g>
</svg>
