<?xml version="1.0" encoding="utf-8"?>
<!-- Generator: Adobe Illustrator 16.0.0, SVG Export Plug-In . SVG Version: 6.00 Build 0)  -->
<!DOCTYPE svg PUBLIC "-//W3C//DTD SVG 1.1//EN" "http://www.w3.org/Graphics/SVG/1.1/DTD/svg11.dtd">
<svg version="1.1" id="Layer_1" xmlns="http://www.w3.org/2000/svg" xmlns:xlink="http://www.w3.org/1999/xlink" x="0px" y="0px"
	 width="40.531px" height="40.668px" viewBox="0 0 40.531 40.668" enable-background="new 0 0 40.531 40.668" xml:space="preserve">
<g>
	<path fill="#FFF3CD" d="M26.397,6.979c-0.793-2.08-3.149-1.524-3.675-0.64c1.128-2.7-1.23-4.374-2.069-6.007
		c-0.839,1.633-3.246,3.307-2.119,6.007c-0.525-0.885-2.881-1.44-3.674,0.64c-0.814,2.134,0.908,7.223,4.337,10.975
		c0.112,0.123,0.33,0.018,0.286-0.144c-1.507-5.487-0.299-7.819,1.17-7.734c1.392,0.081,2.649,3.304,0.934,7.709
		c-0.063,0.161,0.168,0.28,0.285,0.152C25.288,14.202,27.208,9.106,26.397,6.979z"/>
	<path fill="#FFF3CD" d="M17.743,21.115c-5.487,1.506-7.819,0.299-7.734-1.17c0.081-1.393,3.303-2.648,7.709-0.935
		c0.161,0.063,0.28-0.168,0.153-0.285c-3.736-3.414-8.832-5.335-10.958-4.524c-2.08,0.793-1.524,3.149-0.64,3.675
		c-2.7-1.128-4.374,1.23-6.007,2.069c1.633,0.839,3.307,3.247,6.007,2.12c-0.884,0.523-1.44,2.881,0.64,3.674
		c2.134,0.813,7.223-0.908,10.974-4.338C18.01,21.287,17.905,21.07,17.743,21.115z"/>
	<path fill="#FFF3CD" d="M25.672,33.688c0.813-2.135-0.908-7.225-4.338-10.977c-0.113-0.123-0.33-0.018-0.286,0.145
		c1.507,5.486,0.3,7.82-1.17,7.734c-1.392-0.082-2.648-3.305-0.934-7.711c0.063-0.16-0.168-0.279-0.285-0.152
		c-3.416,3.736-5.335,8.834-4.525,10.961c0.793,2.082,3.149,1.525,3.674,0.641c-1.127,2.699,1.23,4.375,2.069,6.008
		c0.839-1.633,3.246-3.309,2.119-6.008C22.521,35.213,24.879,35.77,25.672,33.688z"/>
	<path fill="#FFF3CD" d="M40.266,20.72c-1.633-0.839-3.307-3.246-6.006-2.119c0.884-0.525,1.439-2.881-0.641-3.674
		c-2.135-0.813-7.223,0.907-10.975,4.338c-0.123,0.112-0.018,0.329,0.144,0.285c5.487-1.507,7.819-0.299,7.734,1.17
		c-0.081,1.393-3.304,2.649-7.709,0.934c-0.161-0.063-0.28,0.168-0.153,0.285c3.736,3.416,8.832,5.334,10.959,4.523
		c2.08-0.793,1.524-3.148,0.641-3.674C36.959,23.916,38.633,21.559,40.266,20.72z"/>
	<path fill="#FFF3CD" d="M11.773,28.461c0.509,0.51,1.44,0.402,2.081-0.238c0.64-0.639,2.434-3.662,3.201-5.043
		c-1.439,0.875-4.404,2.561-5.044,3.201C11.371,27.021,11.264,27.953,11.773,28.461z"/>
	<path fill="#FFF3CD" d="M26.314,28.588c0.641,0.641,1.571,0.746,2.08,0.238c0.51-0.51,0.402-1.441-0.238-2.082
		c-0.639-0.641-3.662-2.434-5.043-3.201C23.987,24.982,25.674,27.947,26.314,28.588z"/>
	<path fill="#FFF3CD" d="M28.759,12.203c-0.509-0.508-1.44-0.401-2.081,0.238c-0.64,0.641-2.434,3.662-3.201,5.045
		c1.439-0.875,4.404-2.562,5.044-3.202C29.161,13.643,29.268,12.712,28.759,12.203z"/>
	<path fill="#FFF3CD" d="M14.217,12.078c-0.64-0.641-1.571-0.747-2.081-0.238c-0.509,0.509-0.402,1.44,0.238,2.081
		c0.64,0.64,3.663,2.434,5.045,3.201C16.544,15.682,14.857,12.718,14.217,12.078z"/>
	<circle fill="#FFF3CD" cx="20.266" cy="20.333" r="1.937"/>
</g>
</svg>
