<?xml version="1.0" encoding="utf-8"?>
<!-- Generator: Adobe Illustrator 16.0.0, SVG Export Plug-In . SVG Version: 6.00 Build 0)  -->
<!DOCTYPE svg PUBLIC "-//W3C//DTD SVG 1.1//EN" "http://www.w3.org/Graphics/SVG/1.1/DTD/svg11.dtd">
<svg version="1.1" id="Layer_1" xmlns="http://www.w3.org/2000/svg" xmlns:xlink="http://www.w3.org/1999/xlink" x="0px" y="0px"
	 width="180px" height="40px" viewBox="0 0.015 180 40" enable-background="new 0 0.015 180 40" xml:space="preserve">
<g>
	<g>
		<path fill="#FFF3CD" d="M176.693,37.248H3.248c-0.24,0-0.48-0.18-0.48-0.48V3.202c0-0.241,0.18-0.481,0.48-0.481h173.446
			c0.24,0,0.48,0.181,0.48,0.481v33.565C177.176,37.068,176.992,37.248,176.693,37.248z M3.729,36.346h172.543V3.684H3.729V36.346z"
			/>
	</g>
	<g>
		<path fill="#FFF3CD" d="M171.039,40.016H8.962c-0.241,0-0.481-0.181-0.481-0.481c0-4.39-3.609-8.001-8-8.001
			C0.241,31.533,0,31.354,0,31.055V8.917c0.06-0.24,0.241-0.481,0.541-0.481c4.391,0,7.94-3.549,7.94-7.94
			c0-0.301,0.241-0.481,0.481-0.481h162.077c0.242,0,0.48,0.181,0.48,0.481c0,4.391,3.609,8,8.002,8c0.24,0,0.479,0.181,0.479,0.481
			v22.196c0,0.24-0.18,0.481-0.479,0.481c-4.393,0-8.002,3.609-8.002,7.998C171.461,39.773,171.281,40.016,171.039,40.016z
			 M9.384,39.114h161.175c0.238-4.574,3.91-8.181,8.42-8.423V9.337c-4.57-0.24-8.182-3.909-8.42-8.421H9.384
			c-0.24,4.571-3.91,8.181-8.42,8.421v21.294C5.534,30.873,9.144,34.54,9.384,39.114z"/>
	</g>
</g>
</svg>
