<?xml version="1.0" encoding="utf-8"?>
<!-- Generator: Adobe Illustrator 22.0.1, SVG Export Plug-In . SVG Version: 6.00 Build 0)  -->
<svg version="1.1" id="Layer_1" xmlns="http://www.w3.org/2000/svg" xmlns:xlink="http://www.w3.org/1999/xlink" x="0px" y="0px"
	 viewBox="0 0 178 118.1" style="enable-background:new 0 0 178 118.1;" xml:space="preserve">
<style type="text/css">
	.st0{fill:#C59771;}
</style>
<g>
	<path class="st0" d="M18.3,65.9c-0.9-0.8-2.1-1.1-3.3-1c-2.4,0.2-4.1,1.6-5.1,3.8c-0.9-2.2-2.7-3.6-5.1-3.8c-1.2-0.1-2.3,0.2-3.3,1
		c-0.9,0.8-1.5,1.8-1.6,3c-0.1,0.7,0.1,1.5,0.6,2.1c0.5,0.6,1.1,0.9,1.9,1c1,0.1,2-0.6,2.1-1.7c0-0.4-0.3-0.8-0.7-0.9
		c-0.4,0-0.8,0.3-0.9,0.7c0,0.2-0.2,0.3-0.3,0.3c-0.7-0.1-1.2-0.7-1.1-1.3c0.1-0.8,0.5-1.5,1.1-1.9c0.6-0.5,1.3-0.7,2.1-0.6
		c3.9,0.4,4.4,4.3,4.4,6.6V78H6.5c-0.4,0-0.8,0.4-0.8,0.8v7.6v31c0,0,0,0,0,0c0,0,0,0,0,0c0,0,0,0,0,0c0,0,0,0,0,0c0,0,0,0,0,0
		c0,0,0,0,0,0c0,0.4,0.4,0.7,0.8,0.7c0.4,0,0.8-0.4,0.8-0.8v0c0-0.3,0.1-8.2,2.4-13.1c0.1-0.1,0.1-0.2,0.1-0.3c0-0.1,0-0.3-0.1-0.4
		c-0.1-0.2-0.4-0.4-0.7-0.4l-1.4,0c-0.1,0-0.2,0-0.2,0V86.3v-6.8h1.9v8.4l1.6-1.6V73.1c0-1.8,0.4-6.2,4.4-6.6c1.6-0.2,3,1,3.2,2.6
		c0.1,0.7-0.4,1.3-1.1,1.3c-0.2,0-0.3-0.1-0.3-0.3c0-0.4-0.4-0.7-0.9-0.7c-0.4,0-0.8,0.4-0.7,0.9c0.1,0.5,0.3,1,0.7,1.3
		c0.4,0.3,0.9,0.5,1.4,0.4c0.7-0.1,1.4-0.4,1.9-1c0.4-0.5,0.6-1.1,0.6-1.8c0-0.1,0-0.2,0-0.3C19.8,67.7,19.3,66.7,18.3,65.9z"/>
	<path class="st0" d="M6.4,14.3l6.8,0.1c0.2,0,0.4-0.1,0.6-0.2c0.1-0.1,0.1-0.2,0.2-0.2c0.1,0,0.2-0.1,0.2-0.2
		c0.1-0.2,0.2-0.4,0.2-0.6l-0.1-6.8c0-0.4-0.4-0.8-0.8-0.8H6.7c-0.2,0-0.4,0.1-0.6,0.2C6.1,5.9,6.1,6,6,6c0,0-0.1,0.1-0.1,0.1
		C5.8,6.3,5.7,6.5,5.7,6.7v6.8C5.7,13.9,6,14.3,6.4,14.3z M7.3,7.5l0.2,0l0-0.2h5.2l0.1,5.2h-0.4v0.4l-5.2-0.1V7.5z"/>
	<path class="st0" d="M34.7,27.4h-7.3v7.3c0,0.4,0.4,0.8,0.8,0.8h7.3v-7.3C35.4,27.7,35.1,27.4,34.7,27.4z M33.9,33.9h-4.9v-4.9h4.9
		V33.9z"/>
	<path class="st0" d="M65.4,9.8c0-0.2-0.1-0.4-0.2-0.6l-4.9-4.7c-0.3-0.3-0.8-0.3-1.1,0l-4.6,4.6H50V6.5c0-0.4-0.4-0.8-0.8-0.8H17
		c-0.4,0-0.8,0.4-0.8,0.8v9.8H6.5c-0.4,0-0.8,0.4-0.8,0.8v32.2C5.7,49.7,6,50,6.5,50h2.7v4.6l-4.6,4.6c-0.3,0.3-0.3,0.8,0,1.1
		l4.7,4.9c0.1,0.2,0.3,0.2,0.6,0.2c0.2,0,0.4-0.1,0.6-0.2l4.8-4.8c0.2-0.2,0.2-0.4,0.2-0.6c0-0.2-0.1-0.4-0.2-0.5l-4.4-4.6
		c0.7-3.6,2.7-6.8,5.7-9c3.1-2.3,6.9-3.2,10.7-2.6c2,0.3,3.7,1.4,4.9,3c1.2,1.6,1.7,3.6,1.3,5.6c-0.3,2-2.3,3.4-4.3,3.1
		c-0.9-0.1-1.6-1-1.4-1.9c0-0.2,0.1-0.3,0.2-0.4c0.1-0.1,0.3-0.1,0.4-0.1c0.4,0.1,0.8-0.2,0.9-0.7c0.1-0.4-0.2-0.8-0.7-0.9
		c-0.6-0.1-1.1,0-1.6,0.4c-0.5,0.3-0.8,0.8-0.9,1.4c-0.3,1.8,0.9,3.5,2.7,3.8c2.9,0.5,5.7-1.5,6.1-4.4c0-0.2,0.1-0.4,0.1-0.6h16.3
		V35.1c0.2,0,0.4,0,0.6-0.1c2.9-0.5,4.9-3.2,4.4-6.1c-0.3-1.8-2-3-3.8-2.7c-0.6,0.1-1.1,0.4-1.4,0.9c-0.3,0.5-0.5,1-0.4,1.6
		c0.1,0.4,0.5,0.7,0.9,0.7c0.4-0.1,0.7-0.5,0.7-0.9c0-0.2,0-0.3,0.1-0.4c0.1-0.1,0.2-0.2,0.4-0.2c0.9-0.1,1.8,0.5,1.9,1.4
		c0.3,2-1.1,4-3.1,4.3c-2,0.3-4-0.2-5.6-1.3c-1.6-1.2-2.7-2.9-3-4.9c-0.6-3.8,0.3-7.6,2.6-10.7c2.2-3,5.4-5,9-5.7l4.6,4.4
		c0.2,0.1,0.4,0.2,0.5,0.2c0.2,0,0.4-0.1,0.6-0.2l4.8-4.8C65.4,10.2,65.5,10,65.4,9.8z M13.5,59.8l-3.7,3.7l-3.6-3.8l3.7-3.7
		L13.5,59.8z M20.4,42c-4.1,1.2-7.7,4.1-9.7,8V31.3c0-5.7,2.4-8.6,7.3-8.6c1.4,0,2.8,0.6,3.8,1.8c1.2,1.3,1.8,3.2,1.6,5
		c-0.1,0.8-0.5,1.5-1.1,2c-0.6,0.5-1.4,0.8-2.2,0.7c-0.7-0.1-1.2-0.7-1.2-1.4c0-0.1,0.1-0.2,0.1-0.2c0,0,0.1-0.1,0.3-0.1
		c0.4,0,0.8-0.3,0.9-0.7c0-0.4-0.3-0.8-0.7-0.9c-1.1-0.1-2,0.7-2.1,1.7c-0.2,1.6,1,3,2.6,3.1c0.1,0,0.2,0,0.4,0V42z M28.9,42
		c-0.5-0.2-1-0.3-1.5-0.4c-1.9-0.3-3.7-0.3-5.5,0.1v-8.2c0.5-0.2,1-0.4,1.4-0.8c0.9-0.8,1.5-1.9,1.6-3.1c0-0.2,0-0.5,0-0.7
		c0-2-0.8-4-2.1-5.4c-1.3-1.5-3.1-2.3-5-2.3c-5.7,0-8.8,3.6-8.8,10.1v17.2H7.3V17.8h10.6V7.3h30.6v1.9H31.3
		c-6.5,0-10.1,3.1-10.1,8.8c0,1.9,0.8,3.7,2.3,5c1.5,1.3,3.4,2.1,5.4,2.1c0.2,0,0.5,0,0.7,0c1.2-0.1,2.3-0.7,3.1-1.6
		c0.4-0.4,0.6-0.9,0.8-1.4h8.2c-0.3,1.8-0.4,3.6-0.1,5.5c0.1,0.5,0.2,1,0.4,1.5v13H28.9z M47.6,47.6v-13c0.7,0.3,1.5,0.4,2.3,0.5
		v14.7H35.1c-0.1-0.8-0.2-1.5-0.5-2.3H47.6z M43.5,43.5V31.8c0.5,0.6,1.1,1.1,1.7,1.6c0.2,0.2,0.5,0.3,0.7,0.5V46H33.9
		c-0.1-0.3-0.3-0.5-0.5-0.7c-0.5-0.6-1-1.2-1.6-1.7H43.5z M42,20.4h-8.3c0-0.1,0-0.2,0-0.4c-0.1-1.6-1.6-2.7-3.1-2.6
		c-1.1,0.1-1.8,1-1.7,2.1c0,0.4,0.4,0.8,0.9,0.7c0.4,0,0.8-0.4,0.7-0.9c0-0.1,0-0.2,0.1-0.3c0,0,0.1-0.1,0.2-0.1
		c0.7-0.1,1.3,0.5,1.4,1.2c0.1,0.8-0.2,1.6-0.7,2.2c-0.5,0.6-1.2,1-2,1.1c-1.8,0.2-3.6-0.4-5-1.6c-1.1-1-1.8-2.4-1.8-3.8
		c0-4.8,2.9-7.3,8.6-7.3h18.8C46.2,12.7,43.3,16.2,42,20.4z M59.8,13.5l-3.8-3.6l3.7-3.7l3.8,3.6L59.8,13.5z"/>
	<path class="st0" d="M177.3,5.7C177.3,5.7,177.3,5.7,177.3,5.7C177.3,5.7,177.3,5.7,177.3,5.7C177.3,5.7,177.3,5.7,177.3,5.7
		C177.3,5.7,177.3,5.7,177.3,5.7C177.2,5.7,177.2,5.7,177.3,5.7C177.2,5.7,177.2,5.7,177.3,5.7l-36.3,0v0H78.8C78.3,5.7,78,6,78,6.5
		v2.7h-4.9c-2.3,0-6.2-0.6-6.6-4.4c-0.1-0.8,0.1-1.5,0.6-2.1c0.5-0.6,1.2-1,1.9-1.1c0.7-0.1,1.3,0.4,1.3,1.1c0,0.2-0.1,0.3-0.3,0.3
		c-0.4,0-0.7,0.4-0.7,0.9c0,0.4,0.4,0.7,0.9,0.7c1-0.1,1.8-1,1.7-2.1c-0.1-0.7-0.4-1.4-1-1.9c-0.6-0.5-1.3-0.7-2.1-0.6
		c-1.2,0.1-2.3,0.7-3,1.6c-0.8,0.9-1.1,2.1-1,3.3c0.2,2.4,1.6,4.1,3.8,5.1c-2.2,0.9-3.6,2.7-3.8,5.1c-0.1,1.2,0.2,2.3,1,3.3
		c0.8,0.9,1.8,1.5,3,1.6c0.1,0,0.2,0,0.3,0c0.6,0,1.3-0.2,1.8-0.6c0.6-0.5,0.9-1.1,1-1.9c0.1-0.5-0.1-1-0.4-1.4
		c-0.3-0.4-0.8-0.6-1.3-0.7c-0.4,0-0.8,0.3-0.9,0.7c0,0.4,0.3,0.8,0.7,0.9c0.2,0,0.3,0.2,0.3,0.3c-0.1,0.7-0.7,1.2-1.3,1.1
		c-1.6-0.2-2.7-1.6-2.6-3.2c0.4-4,4.7-4.4,6.6-4.4H141l1.6-1.6h-63V7.3H141v0h22c0,0.1,0,0.2,0,0.2l0,1.4c0,0.3,0.1,0.5,0.4,0.7
		c0.1,0.1,0.3,0.1,0.4,0.1c0.1,0,0.2,0,0.3-0.1c5-2.3,12.9-2.4,13.1-2.4h0c0.4,0,0.8-0.4,0.8-0.8C178,6.1,177.7,5.7,177.3,5.7z"/>
</g>
</svg>
