<?xml version="1.0" encoding="utf-8"?>
<!-- Generator: Adobe Illustrator 16.0.0, SVG Export Plug-In . SVG Version: 6.00 Build 0)  -->
<!DOCTYPE svg PUBLIC "-//W3C//DTD SVG 1.1//EN" "http://www.w3.org/Graphics/SVG/1.1/DTD/svg11.dtd">
<svg version="1.1" id="Layer_1" xmlns="http://www.w3.org/2000/svg" xmlns:xlink="http://www.w3.org/1999/xlink" x="0px" y="0px"
	 width="1280px" height="720px" viewBox="0 0 1280 720" enable-background="new 0 0 1280 720" xml:space="preserve">
<g>
	<path fill="#FFF3CD" d="M92.091,13.376c-2.967,1.263-4.803,3.609-5.132,6.794c-0.165,1.588,0.299,3.146,1.307,4.385
		c1.006,1.239,2.436,2.012,4.023,2.177c0.133,0.013,0.264,0.02,0.394,0.02c0.858,0,1.683-0.292,2.358-0.84
		c0.777-0.632,1.263-1.528,1.365-2.525c0.07-0.673-0.127-1.332-0.553-1.857c-0.427-0.525-1.031-0.852-1.705-0.922
		c-0.578-0.062-1.102,0.363-1.162,0.944c-0.06,0.582,0.363,1.102,0.945,1.162c0.227,0.023,0.393,0.228,0.369,0.455
		c-0.094,0.896-0.902,1.546-1.793,1.457c-2.118-0.219-3.662-2.121-3.443-4.238c0.557-5.373,6.35-5.953,8.814-5.953h1020.666h63.574
		c2.467,0,8.26,0.58,8.814,5.954c0.221,2.117-1.324,4.018-3.441,4.237c-0.893,0.09-1.7-0.56-1.793-1.456
		c-0.024-0.229,0.142-0.432,0.369-0.455c0.582-0.061,1.004-0.581,0.942-1.162c-0.06-0.582-0.582-1.007-1.162-0.944
		c-0.672,0.069-1.276,0.397-1.703,0.922c-0.427,0.524-0.623,1.185-0.555,1.856c0.104,0.997,0.589,1.894,1.366,2.525
		c0.675,0.549,1.501,0.841,2.358,0.841c0.131,0,0.262-0.007,0.393-0.021c1.59-0.164,3.019-0.938,4.025-2.177
		c1.006-1.239,1.471-2.797,1.307-4.386c-0.33-3.185-2.166-5.531-5.133-6.794c2.967-1.263,4.803-3.609,5.133-6.794
		c0.164-1.589-0.3-3.146-1.307-4.385c-1.008-1.24-2.437-2.013-4.025-2.178c-0.996-0.102-1.975,0.188-2.751,0.82
		c-0.777,0.632-1.263,1.528-1.366,2.525c-0.143,1.389,0.869,2.635,2.258,2.778c0.58,0.058,1.104-0.362,1.162-0.944
		c0.062-0.581-0.36-1.102-0.942-1.162c-0.229-0.023-0.395-0.227-0.369-0.455c0.093-0.896,0.901-1.552,1.793-1.456
		c1.024,0.106,1.948,0.605,2.6,1.405c0.649,0.801,0.949,1.807,0.843,2.832c-0.535,5.181-5.753,5.954-8.814,5.954h-6.54V8.652
		c0-0.585-0.474-1.059-1.06-1.059h-55.976H105.479c-0.584,0-1.059,0.474-1.059,1.059v3.666h-6.541c-3.062,0-8.278-0.773-8.814-5.954
		c-0.106-1.026,0.193-2.032,0.844-2.832c0.65-0.801,1.573-1.3,2.6-1.406c0.891-0.096,1.699,0.561,1.793,1.457
		c0.023,0.227-0.143,0.431-0.369,0.455c-0.583,0.06-1.006,0.58-0.946,1.162c0.061,0.582,0.582,1.001,1.162,0.944
		C95.538,6,96.551,4.753,96.407,3.365c-0.103-0.997-0.588-1.894-1.365-2.525c-0.777-0.631-1.756-0.922-2.752-0.82
		c-1.588,0.165-3.018,0.938-4.023,2.177c-1.008,1.24-1.472,2.797-1.307,4.385C87.289,9.767,89.125,12.113,92.091,13.376z
		 M106.538,9.71h1012.007h54.917v2.607h-54.917H106.538V9.71z"/>
	<path fill="#FFF3CD" d="M8.63,19.15l9.083,0.186c0.285,0.006,0.559-0.103,0.763-0.302c0.097-0.095,0.173-0.208,0.228-0.331
		c0.122-0.054,0.234-0.129,0.33-0.227c0.199-0.203,0.309-0.478,0.303-0.763L19.15,8.63c-0.012-0.576-0.481-1.037-1.058-1.037H8.955
		c-0.284,0-0.558,0.114-0.757,0.317c-0.047,0.05-0.09,0.104-0.127,0.16c-0.057,0.038-0.11,0.08-0.16,0.128
		C7.708,8.397,7.593,8.669,7.593,8.954v9.137C7.593,18.667,8.054,19.138,8.63,19.15z M9.71,10.035l0.331,0.007L10.036,9.71h7.019
		l0.144,6.966h-0.521v0.521L9.71,17.054V10.035z"/>
	<path fill="#FFF3CD" d="M37.692,47.456h9.764v-9.764c0-0.584-0.474-1.059-1.059-1.059h-9.764v9.763
		C36.633,46.982,37.108,47.456,37.692,47.456z M38.75,38.751h6.588v6.586H38.75V38.751z"/>
	<path fill="#FFF3CD" d="M12.344,87.312c0.197,0.205,0.469,0.322,0.754,0.325c0.284,0.003,0.558-0.109,0.759-0.311l6.462-6.46
		c0.205-0.207,0.31-0.479,0.31-0.749c0-0.265-0.099-0.528-0.295-0.733l-5.911-6.158c0.921-4.857,3.612-9.113,7.635-12.026
		c4.175-3.024,9.278-4.241,14.369-3.427c2.659,0.425,4.994,1.86,6.573,4.041c1.58,2.182,2.216,4.849,1.79,7.508
		c-0.438,2.742-3.027,4.617-5.77,4.179c-1.24-0.198-2.087-1.366-1.891-2.608c0.033-0.203,0.143-0.381,0.309-0.5
		c0.166-0.121,0.368-0.169,0.57-0.137c0.578,0.092,1.121-0.301,1.213-0.879c0.095-0.576-0.301-1.119-0.879-1.212
		c-0.76-0.122-1.522,0.06-2.146,0.513c-0.624,0.451-1.035,1.119-1.156,1.88c-0.381,2.392,1.252,4.651,3.646,5.034
		c3.896,0.623,7.573-2.039,8.196-5.936c0.041-0.265,0.069-0.528,0.094-0.793h21.889V46.976c0.264-0.025,0.527-0.053,0.792-0.096
		c3.896-0.623,6.559-4.299,5.936-8.195c-0.382-2.393-2.642-4.027-5.034-3.646c-0.761,0.122-1.428,0.532-1.881,1.156
		c-0.451,0.624-0.633,1.387-0.512,2.147c0.093,0.577,0.637,0.973,1.213,0.878c0.577-0.092,0.971-0.635,0.878-1.212
		c-0.032-0.202,0.017-0.405,0.136-0.571c0.121-0.166,0.299-0.275,0.5-0.308c1.244-0.197,2.411,0.649,2.609,1.889
		c0.439,2.743-1.436,5.332-4.18,5.771c-2.658,0.425-5.324-0.211-7.506-1.791s-3.617-3.915-4.043-6.574
		c-0.813-5.091,0.404-10.194,3.428-14.37c2.913-4.021,7.168-6.713,12.027-7.634l6.158,5.911c0.205,0.197,0.469,0.295,0.732,0.295
		c0.271,0,0.542-0.104,0.748-0.31l6.461-6.461c0.201-0.201,0.313-0.475,0.311-0.759c-0.003-0.285-0.12-0.556-0.326-0.753
		l-6.553-6.291c-0.416-0.399-1.075-0.393-1.482,0.015l-6.146,6.146h-6.147V8.652c0-0.585-0.474-1.059-1.06-1.059H22.793
		c-0.584,0-1.059,0.474-1.059,1.059v13.083H8.652c-0.585,0-1.059,0.474-1.059,1.059v43.13c0,0.584,0.474,1.059,1.059,1.059h3.563
		v6.147l-6.146,6.146c-0.407,0.407-0.414,1.065-0.016,1.481L12.344,87.312z M80.04,8.299l5.026,4.825l-4.964,4.963l-5.025-4.825
		L80.04,8.299z M27.282,56.301c-5.55,1.657-10.267,5.531-12.949,10.739V41.87c0-7.597,3.271-11.449,9.725-11.449
		c1.93,0,3.755,0.838,5.139,2.358c1.602,1.762,2.424,4.24,2.196,6.632c-0.103,1.073-0.616,2.042-1.446,2.729
		c-0.832,0.687-1.881,1.009-2.953,0.907c-0.95-0.09-1.648-0.936-1.559-1.885c0.016-0.167,0.111-0.27,0.167-0.316
		c0.056-0.046,0.174-0.121,0.342-0.105c0.582,0.055,1.099-0.372,1.153-0.954c0.057-0.572-0.371-1.099-0.953-1.154
		c-1.419-0.135-2.683,0.91-2.816,2.329c-0.202,2.11,1.354,3.993,3.465,4.192c0.164,0.016,0.328,0.021,0.49,0.023L27.282,56.301
		L27.282,56.301z M63.688,63.688V46.343c0.987,0.348,2.012,0.572,3.059,0.655v19.747H46.999c-0.082-1.045-0.308-2.07-0.656-3.058
		L63.688,63.688L63.688,63.688z M58.299,58.298V42.56c0.658,0.801,1.412,1.53,2.273,2.154c0.323,0.234,0.658,0.445,0.998,0.645
		v16.212H45.36c-0.2-0.34-0.411-0.675-0.646-0.999c-0.624-0.861-1.354-1.615-2.153-2.273L58.299,58.298L58.299,58.298z
		 M67.042,14.333c-5.209,2.682-9.082,7.399-10.74,12.949H45.179c-0.003-0.163-0.007-0.326-0.022-0.49
		c-0.2-2.112-2.082-3.668-4.193-3.466c-1.418,0.135-2.463,1.398-2.328,2.817c0.055,0.583,0.581,1.009,1.154,0.954
		c0.582-0.055,1.009-0.572,0.953-1.154c-0.016-0.168,0.059-0.286,0.105-0.342c0.046-0.056,0.148-0.152,0.315-0.167
		c0.95-0.09,1.795,0.609,1.886,1.558c0.102,1.074-0.221,2.122-0.908,2.953c-0.687,0.832-1.656,1.345-2.729,1.447
		c-2.393,0.228-4.871-0.594-6.633-2.197c-1.521-1.383-2.358-3.208-2.358-5.139c0-6.452,3.853-9.724,11.448-9.724L67.042,14.333
		L67.042,14.333z M9.71,64.865V23.852h14.142V9.71h41.012v2.504H41.87c-8.748,0-13.565,4.206-13.565,11.841
		c0,2.534,1.083,4.916,3.052,6.705c1.954,1.778,4.615,2.785,7.275,2.785c0.327,0,0.654-0.016,0.98-0.046
		c1.637-0.155,3.114-0.938,4.162-2.206c0.473-0.572,0.825-1.214,1.063-1.895h10.951c-0.45,2.367-0.508,4.848-0.105,7.36
		c0.109,0.681,0.284,1.34,0.5,1.981v17.44H38.741c-0.641-0.215-1.299-0.391-1.98-0.499c-2.513-0.401-4.994-0.345-7.361,0.104V44.837
		c0.682-0.238,1.323-0.592,1.895-1.064c1.268-1.047,2.051-2.525,2.206-4.162c0.031-0.326,0.046-0.653,0.046-0.98
		c0-2.66-1.006-5.321-2.784-7.275c-1.79-1.968-4.171-3.051-6.704-3.051c-7.637,0-11.842,4.817-11.842,13.566v22.995L9.71,64.865
		L9.71,64.865z M13.263,75.076l4.824,5.027l-4.964,4.963L8.299,80.04L13.263,75.076z"/>
	<path fill="#FFF3CD" d="M20.942,132.097l1.934,0.01c0.363,0.002,0.703-0.182,0.898-0.488c0.109-0.174,0.166-0.371,0.166-0.57
		c0-0.154-0.033-0.308-0.102-0.451c-3.133-6.641-3.209-17.233-3.21-17.578v-0.008c0-0.585-0.474-1.059-1.059-1.059
		c-0.55,0-1.003,0.42-1.054,0.957c0,0.003,0,0.004-0.001,0.006c-0.001,0.007-0.001,0.012-0.001,0.018
		c-0.001,0.004,0,0.006-0.001,0.01c0.001,0.006-0.001,0.008-0.001,0.012s0,0.006,0,0.008c-0.001,0.016-0.001,0.033-0.001,0.049V569
		l0,0v37.988c0,0.018,0,0.032,0,0.049c0,0.002,0,0.004,0.001,0.008c0.001,0.004,0.002,0.006,0.001,0.012c0,0.005,0,0.007,0,0.011
		c0.001,0.006,0.002,0.012,0.002,0.018c0,0.002,0.001,0.004,0,0.006c0.052,0.537,0.504,0.957,1.055,0.957
		c0.584,0,1.059-0.473,1.059-1.059v-0.006c0.001-0.347,0.076-10.939,3.21-17.58c0.067-0.144,0.101-0.297,0.101-0.451
		c0-0.199-0.055-0.396-0.166-0.568c-0.195-0.309-0.534-0.492-0.898-0.49l-1.933,0.011c-0.109,0.002-0.215,0.02-0.313,0.051v-22.416
		l0,0V132.048C20.727,132.079,20.833,132.096,20.942,132.097z"/>
	<path fill="#FFF3CD" d="M1261.297,18.704c0.054,0.122,0.129,0.234,0.228,0.33c0.202,0.199,0.479,0.309,0.764,0.303l9.082-0.187
		c0.576-0.012,1.037-0.481,1.037-1.058V8.955c0-0.284-0.114-0.558-0.317-0.757c-0.05-0.047-0.103-0.09-0.159-0.127
		c-0.038-0.057-0.079-0.11-0.129-0.16c-0.198-0.203-0.471-0.317-0.756-0.317h-9.137c-0.576,0-1.047,0.461-1.06,1.037l-0.186,9.083
		c-0.006,0.285,0.104,0.559,0.302,0.763C1261.061,18.573,1261.174,18.649,1261.297,18.704z M1262.945,9.71h7.02l-0.007,0.331
		l0.331-0.006v7.019l-6.966,0.144v-0.521h-0.521L1262.945,9.71z"/>
	<path fill="#FFF3CD" d="M1232.544,37.692v9.764h9.764c0.585,0,1.06-0.474,1.06-1.059v-9.764h-9.764
		C1233.018,36.633,1232.544,37.108,1232.544,37.692z M1234.662,38.75h6.586v6.588h-6.586V38.75z"/>
	<path fill="#FFF3CD" d="M1192.362,13.098c-0.003,0.284,0.108,0.558,0.311,0.759l6.46,6.462c0.207,0.205,0.479,0.31,0.749,0.31
		c0.266,0,0.528-0.099,0.733-0.295l6.158-5.911c4.856,0.921,9.112,3.612,12.025,7.635c3.024,4.175,4.241,9.278,3.428,14.369
		c-0.426,2.659-1.86,4.994-4.041,6.573c-2.183,1.58-4.85,2.216-7.509,1.79c-2.741-0.438-4.616-3.027-4.179-5.77
		c0.198-1.24,1.366-2.087,2.608-1.891c0.202,0.033,0.381,0.143,0.5,0.309c0.12,0.166,0.169,0.368,0.137,0.57
		c-0.092,0.578,0.301,1.121,0.879,1.213c0.576,0.095,1.119-0.301,1.212-0.879c0.122-0.76-0.06-1.522-0.513-2.146
		c-0.451-0.624-1.119-1.035-1.88-1.156c-2.393-0.381-4.651,1.252-5.034,3.646c-0.623,3.896,2.039,7.573,5.936,8.196
		c0.266,0.041,0.528,0.069,0.793,0.094v21.889h21.888c0.024,0.264,0.053,0.527,0.096,0.792c0.623,3.896,4.299,6.559,8.195,5.936
		c2.393-0.382,4.026-2.642,3.646-5.034c-0.122-0.761-0.533-1.428-1.156-1.881c-0.625-0.451-1.387-0.633-2.147-0.512
		c-0.576,0.093-0.974,0.637-0.877,1.213c0.092,0.577,0.635,0.971,1.212,0.878c0.202-0.032,0.405,0.017,0.571,0.136
		c0.166,0.121,0.274,0.299,0.307,0.5c0.197,1.244-0.648,2.411-1.889,2.609c-2.743,0.439-5.332-1.436-5.771-4.18
		c-0.425-2.658,0.211-5.324,1.791-7.506s3.914-3.617,6.574-4.043c5.09-0.813,10.193,0.404,14.369,3.428
		c4.021,2.913,6.713,7.168,7.634,12.027l-5.911,6.158c-0.196,0.205-0.295,0.469-0.295,0.732c0,0.271,0.104,0.542,0.311,0.748
		l6.462,6.461c0.2,0.201,0.475,0.313,0.76,0.311c0.284-0.003,0.555-0.12,0.752-0.326l6.291-6.553
		c0.399-0.416,0.393-1.075-0.015-1.482l-6.146-6.146v-6.147h3.563c0.586,0,1.06-0.474,1.06-1.06V22.793
		c0-0.584-0.474-1.059-1.06-1.059h-13.082V8.652c0-0.585-0.475-1.059-1.06-1.059h-43.13c-0.584,0-1.059,0.474-1.059,1.059v3.563
		h-6.147l-6.146-6.146c-0.407-0.407-1.065-0.414-1.481-0.016l-6.555,6.291C1192.482,12.542,1192.365,12.813,1192.362,13.098z
		 M1233.001,66.747h-19.747V46.999c1.045-0.082,2.07-0.308,3.059-0.656v17.346h17.345
		C1233.309,64.675,1233.084,65.7,1233.001,66.747z M1235.285,60.573c-0.234,0.323-0.445,0.658-0.646,0.998h-16.212V45.36
		c0.34-0.2,0.676-0.411,0.999-0.646c0.861-0.624,1.615-1.354,2.273-2.153v15.738h15.737
		C1236.639,58.958,1235.909,59.711,1235.285,60.573z M1252.718,56.301V45.179c0.163-0.003,0.325-0.007,0.489-0.022
		c2.113-0.2,3.668-2.082,3.467-4.193c-0.135-1.418-1.397-2.463-2.815-2.328c-0.584,0.055-1.011,0.581-0.955,1.154
		c0.056,0.582,0.571,1.009,1.153,0.953c0.168-0.016,0.286,0.059,0.343,0.105c0.056,0.046,0.151,0.148,0.168,0.315
		c0.09,0.95-0.609,1.795-1.56,1.886c-1.073,0.102-2.121-0.221-2.953-0.908s-1.346-1.656-1.446-2.729
		c-0.228-2.393,0.594-4.871,2.196-6.633c1.384-1.521,3.209-2.358,5.14-2.358c6.452,0,9.724,3.853,9.724,11.448v25.172
		C1262.984,61.833,1258.268,57.959,1252.718,56.301z M1271.7,80.04l-4.825,5.026l-4.963-4.964l4.824-5.025L1271.7,80.04z
		 M1215.135,9.71h41.014v14.142h14.142v41.012h-2.504V41.87c0-8.748-4.206-13.565-11.843-13.565c-2.533,0-4.916,1.083-6.704,3.052
		c-1.778,1.954-2.785,4.615-2.785,7.275c0,0.327,0.016,0.654,0.047,0.98c0.155,1.637,0.938,3.114,2.205,4.162
		c0.571,0.473,1.215,0.825,1.895,1.063v10.951c-2.366-0.45-4.848-0.508-7.358-0.105c-0.683,0.109-1.34,0.284-1.981,0.5h-17.439
		V38.741c0.215-0.641,0.391-1.299,0.499-1.98c0.4-2.513,0.345-4.994-0.104-7.361h10.949c0.238,0.682,0.592,1.323,1.063,1.895
		c1.047,1.268,2.525,2.051,4.162,2.206c0.325,0.031,0.652,0.046,0.98,0.046c2.659,0,5.319-1.006,7.274-2.784
		c1.968-1.79,3.052-4.171,3.052-6.704c0-7.637-4.817-11.842-13.566-11.842h-22.994V9.71H1215.135z M1238.129,14.333
		c7.598,0,11.449,3.271,11.449,9.725c0,1.93-0.838,3.755-2.358,5.139c-1.762,1.602-4.239,2.424-6.632,2.196
		c-1.073-0.103-2.043-0.616-2.729-1.446c-0.688-0.832-1.01-1.881-0.907-2.953c0.09-0.95,0.936-1.648,1.885-1.559
		c0.168,0.016,0.271,0.111,0.316,0.167c0.045,0.056,0.121,0.174,0.104,0.342c-0.056,0.582,0.372,1.099,0.954,1.153
		c0.572,0.057,1.1-0.371,1.154-0.953c0.135-1.419-0.91-2.683-2.329-2.816c-2.11-0.202-3.993,1.354-4.192,3.465
		c-0.016,0.164-0.021,0.328-0.022,0.49h-11.122c-1.657-5.55-5.531-10.267-10.739-12.949L1238.129,14.333L1238.129,14.333z
		 M1199.96,8.299l4.964,4.964l-5.027,4.824l-4.963-4.964L1199.96,8.299z"/>
	<path fill="#FFF3CD" d="M1167.09,18.516c-0.003,0-0.004,0-0.006-0.001c-0.007-0.001-0.012-0.001-0.018-0.001
		c-0.004-0.001-0.006,0-0.011-0.001c-0.006,0.001-0.008-0.001-0.012-0.001s-0.006,0-0.008,0c-0.017-0.001-0.033-0.001-0.049-0.001
		h-48.443l0,0H113.011c-0.017,0-0.032,0-0.048,0.001c-0.002,0-0.005,0-0.008,0c-0.004,0-0.006,0.002-0.012,0
		c-0.004,0-0.006,0-0.011,0.001c-0.005,0-0.011,0.001-0.017,0.001c-0.002,0-0.004,0.001-0.007,0
		c-0.537,0.051-0.957,0.503-0.957,1.054c0,0.585,0.474,1.059,1.059,1.059h0.007c0.346,0.001,10.939,0.077,17.579,3.21
		c0.144,0.068,0.298,0.101,0.452,0.101c0.198,0,0.396-0.056,0.568-0.166c0.308-0.195,0.492-0.535,0.49-0.898l-0.011-1.933
		c-0.001-0.109-0.019-0.215-0.05-0.314h986.498l0,0h29.406c-0.03,0.099-0.048,0.204-0.049,0.313l-0.011,1.934
		c-0.002,0.363,0.183,0.703,0.488,0.898c0.174,0.109,0.371,0.166,0.57,0.166c0.153,0,0.308-0.033,0.451-0.102
		c6.641-3.133,17.232-3.209,17.577-3.21h0.009c0.585,0,1.059-0.474,1.059-1.059C1168.047,19.02,1167.627,18.567,1167.09,18.516z"/>
	<path fill="#FFF3CD" d="M1187.908,706.623c2.967-1.263,4.803-3.609,5.132-6.793c0.165-1.589-0.299-3.146-1.308-4.386
		c-1.006-1.239-2.436-2.014-4.022-2.178c-0.133-0.014-0.264-0.021-0.394-0.021c-0.858,0-1.684,0.292-2.358,0.841
		c-0.777,0.631-1.263,1.527-1.365,2.524c-0.069,0.673,0.127,1.332,0.553,1.856c0.428,0.524,1.031,0.854,1.705,0.922
		c0.578,0.063,1.103-0.361,1.162-0.943c0.061-0.582-0.363-1.103-0.944-1.162c-0.228-0.023-0.394-0.229-0.369-0.455
		c0.094-0.896,0.901-1.546,1.793-1.457c2.117,0.22,3.662,2.121,3.442,4.238c-0.557,5.373-6.35,5.953-8.813,5.953H161.455H97.881
		c-2.467,0-8.26-0.58-8.815-5.953c-0.22-2.117,1.325-4.019,3.442-4.238c0.892-0.09,1.7,0.561,1.793,1.457
		c0.024,0.229-0.142,0.432-0.369,0.455c-0.582,0.061-1.004,0.58-0.943,1.162c0.06,0.582,0.582,1.006,1.162,0.942
		c0.672-0.067,1.277-0.396,1.703-0.922c0.427-0.522,0.623-1.184,0.555-1.854c-0.104-0.998-0.589-1.896-1.366-2.525
		c-0.675-0.549-1.501-0.842-2.358-0.842c-0.131,0-0.262,0.008-0.393,0.021c-1.59,0.164-3.019,0.938-4.025,2.177
		c-1.007,1.239-1.471,2.797-1.307,4.387c0.33,3.184,2.166,5.531,5.133,6.793c-2.967,1.264-4.803,3.609-5.133,6.796
		c-0.164,1.588,0.3,3.146,1.307,4.385c1.007,1.239,2.436,2.013,4.025,2.178c0.996,0.102,1.974-0.188,2.751-0.82
		s1.263-1.528,1.366-2.524c0.143-1.389-0.869-2.635-2.258-2.778c-0.58-0.058-1.103,0.362-1.162,0.944
		c-0.061,0.58,0.361,1.103,0.943,1.162c0.228,0.023,0.394,0.228,0.369,0.455c-0.093,0.896-0.902,1.551-1.793,1.455
		c-1.025-0.104-1.949-0.604-2.6-1.404c-0.649-0.801-0.949-1.807-0.843-2.832c0.536-5.183,5.753-5.955,8.815-5.955h6.54v3.667
		c0,0.586,0.474,1.059,1.059,1.059h55.976v-0.001H1174.52c0.584,0,1.06-0.473,1.06-1.059v-3.666h6.541
		c3.062,0,8.278,0.772,8.813,5.953c0.106,1.026-0.192,2.032-0.844,2.832c-0.65,0.802-1.573,1.301-2.6,1.406
		c-0.892,0.096-1.699-0.561-1.793-1.457c-0.023-0.228,0.143-0.431,0.369-0.454c0.582-0.061,1.005-0.581,0.944-1.162
		s-0.582-1.002-1.162-0.944c-1.389,0.145-2.401,1.391-2.258,2.778c0.104,0.997,0.588,1.895,1.365,2.525
		c0.776,0.631,1.756,0.922,2.752,0.819c1.588-0.164,3.018-0.938,4.022-2.178c1.009-1.238,1.473-2.797,1.308-4.385
		C1192.711,710.233,1190.875,707.887,1187.908,706.623z M1173.462,710.289H161.455h-54.917v-2.607h54.917h1012.007V710.289z"/>
	<path fill="#FFF3CD" d="M1166.988,701.489c0.017,0,0.031-0.001,0.048-0.001c0.002,0,0.005,0,0.008,0
		c0.004-0.001,0.006-0.002,0.012-0.001c0.005-0.001,0.007,0,0.012-0.001c0.005,0,0.011-0.001,0.017-0.002c0.002,0,0.004,0,0.007,0
		c0.537-0.052,0.957-0.504,0.957-1.055c0-0.585-0.474-1.059-1.059-1.059h-0.007c-0.347-0.001-10.939-0.077-17.579-3.21
		c-0.145-0.068-0.298-0.103-0.452-0.103c-0.198,0-0.396,0.057-0.568,0.166c-0.308,0.195-0.492,0.535-0.49,0.898l0.012,1.934
		c0.001,0.109,0.019,0.216,0.05,0.313H161.455v-0.001h-29.406c0.03-0.098,0.048-0.203,0.049-0.313l0.01-1.934
		c0.002-0.363-0.182-0.703-0.488-0.898c-0.174-0.108-0.371-0.166-0.57-0.166c-0.154,0-0.308,0.033-0.451,0.103
		c-6.641,3.133-17.233,3.209-17.578,3.209h-0.008c-0.585,0-1.059,0.475-1.059,1.059c0,0.552,0.42,1.004,0.957,1.056
		c0.003,0,0.004,0,0.006,0c0.007,0.002,0.012,0.002,0.018,0.002c0.004,0,0.006,0,0.01,0c0.006,0,0.008,0.002,0.012,0.002
		s0.006,0,0.008,0c0.016,0,0.033,0,0.049,0h48.443v0.001L1166.988,701.489L1166.988,701.489z"/>
	<path fill="#FFF3CD" d="M1276.634,623.592c-1.389-0.143-2.635,0.869-2.777,2.258c-0.059,0.58,0.361,1.104,0.943,1.162
		c0.581,0.062,1.103-0.36,1.162-0.942c0.023-0.228,0.228-0.394,0.455-0.369c0.896,0.094,1.552,0.901,1.456,1.793
		c-0.105,1.024-0.605,1.949-1.405,2.6c-0.801,0.65-1.807,0.949-2.832,0.844c-5.181-0.536-5.954-5.754-5.954-8.815v-6.539h3.666
		c0.585,0,1.06-0.475,1.06-1.06v-460.06v-48.984c0-0.584-0.475-1.059-1.06-1.059h-3.666v-6.541c0-3.062,0.773-8.278,5.953-8.814
		c1.026-0.106,2.032,0.193,2.832,0.844c0.801,0.65,1.301,1.573,1.406,2.6c0.096,0.891-0.561,1.699-1.457,1.793
		c-0.227,0.023-0.431-0.143-0.454-0.369c-0.061-0.582-0.581-1.005-1.162-0.945c-0.581,0.061-1.001,0.582-0.943,1.162
		c0.144,1.389,1.391,2.402,2.778,2.258c0.996-0.103,1.894-0.588,2.525-1.365c0.631-0.777,0.922-1.756,0.819-2.752
		c-0.165-1.588-0.938-3.018-2.178-4.023c-1.239-1.008-2.797-1.472-4.385-1.307c-3.186,0.329-5.531,2.165-6.795,5.132
		c-1.264-2.967-3.609-4.803-6.794-5.132c-1.589-0.165-3.146,0.299-4.386,1.307c-1.238,1.006-2.013,2.436-2.177,4.023
		c-0.014,0.133-0.021,0.264-0.021,0.394c0,0.858,0.293,1.683,0.841,2.358c0.632,0.777,1.528,1.263,2.524,1.365
		c0.674,0.07,1.332-0.127,1.856-0.553c0.525-0.427,0.854-1.031,0.923-1.705c0.063-0.578-0.362-1.102-0.943-1.162
		c-0.582-0.06-1.103,0.363-1.162,0.945c-0.023,0.227-0.229,0.393-0.455,0.369c-0.896-0.094-1.547-0.902-1.457-1.793
		c0.219-2.118,2.121-3.662,4.238-3.443c5.373,0.557,5.953,6.35,5.953,8.814v56.584V622.12c0,2.467-0.58,8.26-5.954,8.815
		c-2.117,0.22-4.019-1.325-4.237-3.442c-0.09-0.892,0.561-1.699,1.456-1.793c0.229-0.023,0.433,0.143,0.455,0.369
		c0.062,0.582,0.581,1.004,1.162,0.942c0.582-0.059,1.007-0.582,0.944-1.162c-0.069-0.672-0.397-1.276-0.923-1.702
		c-0.524-0.427-1.185-0.623-1.855-0.556c-0.997,0.104-1.895,0.59-2.525,1.367c-0.549,0.674-0.841,1.5-0.841,2.357
		c0,0.131,0.007,0.262,0.021,0.393c0.164,1.59,0.938,3.021,2.177,4.025c1.239,1.008,2.797,1.471,4.386,1.307
		c3.186-0.33,5.531-2.166,6.794-5.133c1.263,2.967,3.609,4.803,6.794,5.133c1.589,0.164,3.146-0.299,4.385-1.307
		c1.24-1.007,2.014-2.437,2.179-4.025c0.102-0.996-0.188-1.973-0.82-2.75S1277.631,623.695,1276.634,623.592z M1267.682,106.538
		h2.607v47.926v459h-2.607v-459V106.538z"/>
	<path fill="#FFF3CD" d="M1271.369,700.85l-9.083-0.186c-0.285-0.006-0.56,0.104-0.763,0.303c-0.098,0.095-0.174,0.208-0.229,0.33
		c-0.122,0.055-0.234,0.13-0.33,0.229c-0.199,0.202-0.309,0.478-0.303,0.763l0.188,9.083c0.012,0.576,0.48,1.036,1.058,1.036h9.138
		c0.284,0,0.559-0.113,0.757-0.316c0.047-0.05,0.09-0.104,0.127-0.16c0.058-0.036,0.11-0.08,0.16-0.128
		c0.203-0.197,0.317-0.472,0.317-0.756v-9.138C1272.406,701.332,1271.945,700.861,1271.369,700.85z M1270.289,709.965l-0.331-0.006
		l0.006,0.33h-7.019l-0.145-6.965h0.521v-0.521l6.966,0.144L1270.289,709.965L1270.289,709.965z"/>
	<path fill="#FFF3CD" d="M1242.308,672.545h-9.764v9.764c0,0.584,0.474,1.06,1.059,1.06h9.765v-9.764
		C1243.366,673.018,1242.892,672.545,1242.308,672.545z M1241.249,681.249h-6.588v-6.587h6.588V681.249z"/>
	<path fill="#FFF3CD" d="M1267.655,632.688c-0.197-0.205-0.47-0.322-0.754-0.324c-0.284-0.004-0.559,0.108-0.76,0.311l-6.462,6.459
		c-0.205,0.207-0.31,0.479-0.31,0.75c0,0.264,0.099,0.527,0.295,0.732l5.911,6.158c-0.921,4.856-3.612,9.112-7.635,12.026
		c-4.176,3.023-9.278,4.24-14.369,3.426c-2.659-0.424-4.994-1.858-6.573-4.041c-1.58-2.182-2.216-4.848-1.79-7.508
		c0.438-2.742,3.027-4.617,5.77-4.178c1.24,0.197,2.088,1.365,1.892,2.607c-0.033,0.202-0.144,0.381-0.31,0.5
		c-0.166,0.12-0.367,0.17-0.569,0.137c-0.578-0.092-1.121,0.301-1.213,0.879c-0.096,0.576,0.301,1.119,0.879,1.213
		c0.76,0.121,1.521-0.061,2.146-0.514c0.624-0.451,1.035-1.119,1.156-1.879c0.381-2.394-1.252-4.652-3.646-5.035
		c-3.896-0.623-7.572,2.039-8.195,5.936c-0.041,0.267-0.069,0.529-0.094,0.793h-21.89v21.888c-0.264,0.024-0.526,0.053-0.792,0.096
		c-3.896,0.623-6.559,4.299-5.936,8.195c0.382,2.394,2.642,4.026,5.033,3.646c0.762-0.121,1.429-0.532,1.882-1.156
		c0.45-0.624,0.633-1.387,0.512-2.146c-0.093-0.577-0.637-0.973-1.213-0.878c-0.577,0.092-0.972,0.635-0.878,1.213
		c0.031,0.201-0.018,0.404-0.137,0.57c-0.121,0.166-0.299,0.274-0.5,0.308c-1.244,0.196-2.41-0.649-2.608-1.89
		c-0.439-2.742,1.436-5.332,4.18-5.771c2.658-0.424,5.324,0.211,7.506,1.791c2.183,1.58,3.617,3.915,4.043,6.574
		c0.813,5.091-0.403,10.193-3.428,14.369c-2.913,4.021-7.168,6.714-12.027,7.635l-6.157-5.911c-0.205-0.196-0.47-0.295-0.732-0.295
		c-0.271,0-0.542,0.104-0.748,0.311l-6.461,6.461c-0.201,0.2-0.313,0.476-0.312,0.76c0.003,0.285,0.12,0.556,0.326,0.753
		l6.554,6.291c0.416,0.398,1.074,0.393,1.481-0.015l6.146-6.146h6.146v3.563c0,0.586,0.474,1.059,1.061,1.059h43.129
		c0.584,0,1.059-0.473,1.059-1.059v-13.082h13.083c0.585,0,1.059-0.476,1.059-1.06v-43.131c0-0.584-0.474-1.059-1.059-1.059h-3.563
		v-6.146l6.146-6.146c0.407-0.408,0.414-1.066,0.017-1.482L1267.655,632.688z M1199.96,711.701l-5.026-4.825l4.965-4.964
		l5.024,4.825L1199.96,711.701z M1252.718,663.699c5.55-1.658,10.268-5.531,12.949-10.74v25.171c0,7.597-3.271,11.448-9.725,11.448
		c-1.931,0-3.755-0.838-5.14-2.357c-1.602-1.762-2.424-4.239-2.195-6.633c0.103-1.072,0.615-2.042,1.445-2.729
		c0.832-0.688,1.881-1.011,2.953-0.908c0.95,0.09,1.648,0.936,1.559,1.885c-0.016,0.168-0.11,0.271-0.166,0.316
		c-0.057,0.046-0.175,0.12-0.343,0.104c-0.582-0.056-1.099,0.371-1.152,0.953c-0.058,0.572,0.37,1.1,0.952,1.154
		c1.42,0.135,2.684-0.91,2.816-2.328c0.202-2.111-1.354-3.994-3.465-4.193c-0.164-0.016-0.328-0.02-0.49-0.022L1252.718,663.699
		L1252.718,663.699z M1216.313,656.313v17.344c-0.987-0.349-2.013-0.572-3.06-0.654v-19.748h19.748
		c0.082,1.045,0.308,2.07,0.656,3.06L1216.313,656.313L1216.313,656.313z M1221.7,661.701v15.737
		c-0.658-0.801-1.412-1.528-2.273-2.153c-0.323-0.234-0.657-0.445-0.998-0.646v-16.21h16.211c0.2,0.341,0.411,0.675,0.646,0.998
		c0.624,0.861,1.354,1.615,2.153,2.273H1221.7z M1212.958,705.668c5.209-2.683,9.082-7.399,10.74-12.949h11.122
		c0.003,0.162,0.007,0.325,0.021,0.489c0.2,2.112,2.082,3.668,4.193,3.466c1.418-0.135,2.463-1.396,2.328-2.815
		c-0.056-0.583-0.581-1.011-1.154-0.954c-0.582,0.056-1.009,0.571-0.953,1.153c0.016,0.168-0.059,0.286-0.105,0.342
		c-0.046,0.057-0.147,0.151-0.314,0.168c-0.95,0.09-1.795-0.609-1.886-1.56c-0.103-1.072,0.221-2.121,0.907-2.953
		c0.688-0.831,1.656-1.345,2.729-1.445c2.393-0.229,4.871,0.594,6.633,2.195c1.521,1.385,2.358,3.209,2.358,5.14
		c0,6.453-3.854,9.725-11.448,9.725L1212.958,705.668L1212.958,705.668z M1270.289,655.135v41.015h-14.143v14.141h-41.012v-2.504
		h22.994c8.748,0,13.565-4.205,13.565-11.842c0-2.533-1.083-4.915-3.053-6.705c-1.954-1.777-4.614-2.784-7.274-2.784
		c-0.327,0-0.654,0.016-0.98,0.046c-1.637,0.156-3.113,0.939-4.162,2.206c-0.473,0.572-0.824,1.214-1.063,1.895h-10.951
		c0.45-2.365,0.508-4.849,0.105-7.359c-0.109-0.683-0.284-1.34-0.5-1.98v-17.44h17.44c0.642,0.215,1.299,0.391,1.98,0.5
		c2.513,0.399,4.993,0.344,7.36-0.105v10.949c-0.682,0.238-1.322,0.592-1.895,1.064c-1.269,1.047-2.051,2.524-2.206,4.161
		c-0.031,0.326-0.046,0.653-0.046,0.98c0,2.66,1.006,5.32,2.783,7.275c1.791,1.968,4.172,3.051,6.704,3.051
		c7.638,0,11.843-4.816,11.843-13.565v-22.995h2.508V655.135z M1266.736,644.924l-4.824-5.026l4.964-4.964l4.824,5.027
		L1266.736,644.924z"/>
	<path fill="#FFF3CD" d="M1259.371,587.951c-0.1-0.029-0.204-0.047-0.313-0.049l-1.934-0.011c-0.363-0.002-0.703,0.183-0.897,0.488
		c-0.109,0.174-0.166,0.371-0.166,0.57c0,0.153,0.032,0.309,0.102,0.451c3.133,6.641,3.209,17.233,3.21,17.577v0.009
		c0,0.586,0.474,1.059,1.059,1.059c0.551,0,1.003-0.42,1.055-0.957c0-0.002,0-0.004,0.001-0.006
		c0.001-0.006,0.001-0.012,0.001-0.018c0.001-0.005,0-0.007,0.001-0.011c-0.001-0.006,0.001-0.008,0.001-0.012s0-0.006,0-0.008
		c0.001-0.017,0.001-0.033,0.001-0.049V154.463v-41.452c0-0.017,0-0.032,0-0.048c0-0.002,0-0.005-0.001-0.008
		c-0.001-0.004-0.002-0.006-0.001-0.012c0-0.004,0-0.006,0-0.011c-0.001-0.005-0.002-0.011-0.002-0.017c0-0.002-0.001-0.004,0-0.007
		c-0.053-0.537-0.504-0.957-1.056-0.957c-0.584,0-1.059,0.474-1.059,1.059v0.007c-0.001,0.346-0.076,10.939-3.21,17.579
		c-0.067,0.144-0.102,0.298-0.102,0.452c0,0.198,0.056,0.396,0.166,0.568c0.195,0.308,0.534,0.492,0.898,0.49l1.933-0.011
		c0.109-0.001,0.216-0.019,0.313-0.05v22.416V587.951z"/>
	<path fill="#FFF3CD" d="M6.582,633.041c3.186-0.33,5.531-2.166,6.795-5.133c1.264,2.967,3.609,4.803,6.794,5.133
		c1.589,0.164,3.146-0.299,4.386-1.307c1.238-1.007,2.012-2.437,2.177-4.023c0.013-0.133,0.021-0.264,0.021-0.395
		c0-0.857-0.293-1.683-0.841-2.357c-0.632-0.777-1.528-1.264-2.524-1.365c-0.674-0.069-1.332,0.127-1.857,0.554
		c-0.525,0.426-0.853,1.03-0.922,1.704c-0.063,0.578,0.362,1.103,0.943,1.162c0.582,0.06,1.102-0.362,1.162-0.944
		c0.023-0.228,0.229-0.394,0.455-0.369c0.896,0.094,1.547,0.901,1.457,1.793c-0.219,2.117-2.121,3.662-4.238,3.442
		c-5.373-0.557-5.953-6.35-5.953-8.813v-56.584l0,0V97.88c0-2.467,0.58-8.26,5.954-8.815c2.117-0.22,4.018,1.325,4.237,3.442
		c0.09,0.892-0.56,1.7-1.456,1.793c-0.229,0.024-0.432-0.142-0.455-0.369c-0.061-0.582-0.581-1.004-1.162-0.943
		c-0.582,0.06-1.007,0.582-0.944,1.162c0.069,0.672,0.397,1.277,0.922,1.703c0.524,0.427,1.185,0.623,1.856,0.555
		c0.997-0.104,1.894-0.589,2.525-1.366c0.549-0.675,0.841-1.501,0.841-2.358c0-0.131-0.007-0.262-0.021-0.393
		c-0.164-1.59-0.938-3.019-2.177-4.025c-1.239-1.006-2.797-1.471-4.386-1.307c-3.185,0.33-5.531,2.166-6.794,5.133
		c-1.263-2.967-3.609-4.803-6.794-5.133c-1.589-0.164-3.146,0.3-4.385,1.307c-1.24,1.007-2.013,2.436-2.178,4.025
		c-0.102,0.996,0.188,1.974,0.82,2.751c0.632,0.777,1.528,1.263,2.525,1.366C4.754,96.55,6,95.539,6.144,94.15
		c0.058-0.58-0.362-1.103-0.944-1.162c-0.581-0.061-1.102,0.361-1.162,0.943c-0.023,0.228-0.227,0.394-0.455,0.369
		c-0.896-0.093-1.552-0.902-1.456-1.793c0.106-1.025,0.605-1.949,1.405-2.6c0.801-0.649,1.807-0.949,2.832-0.843
		c5.181,0.536,5.954,5.753,5.954,8.815v6.54H8.652c-0.585,0-1.059,0.474-1.059,1.059V569l0,0v45.521c0,0.584,0.474,1.06,1.059,1.06
		h3.666v6.541c0,3.061-0.773,8.277-5.953,8.813c-1.026,0.105-2.032-0.192-2.832-0.844c-0.801-0.649-1.301-1.574-1.406-2.6
		c-0.096-0.891,0.561-1.699,1.457-1.793c0.227-0.023,0.431,0.143,0.454,0.369c0.061,0.582,0.581,1.004,1.162,0.944
		c0.581-0.061,1.001-0.582,0.944-1.161c-0.144-1.39-1.391-2.402-2.779-2.259c-0.996,0.103-1.893,0.588-2.525,1.365
		c-0.631,0.777-0.922,1.756-0.819,2.752c0.165,1.588,0.938,3.019,2.177,4.023C3.438,632.742,4.994,633.205,6.582,633.041z
		 M9.711,613.463v-47.926l0,0v-459h2.607V569l0,0v44.463H9.711z"/>
	<path fill="#FFF3CD" d="M18.703,701.297c-0.054-0.123-0.129-0.233-0.227-0.33c-0.203-0.199-0.479-0.309-0.764-0.303L8.63,700.85
		c-0.576,0.013-1.037,0.482-1.037,1.06v9.137c0,0.285,0.114,0.56,0.317,0.758c0.05,0.047,0.103,0.09,0.159,0.127
		c0.038,0.058,0.08,0.109,0.129,0.16c0.198,0.203,0.471,0.316,0.756,0.316h9.137c0.576,0,1.047-0.461,1.059-1.037l0.186-9.082
		c0.006-0.285-0.103-0.559-0.302-0.764C18.939,701.428,18.826,701.352,18.703,701.297z M17.055,710.289h-7.02l0.007-0.33
		l-0.331,0.006v-7.02l6.966-0.144v0.521h0.521L17.055,710.289z"/>
	<path fill="#FFF3CD" d="M47.456,682.309v-9.764h-9.764c-0.585,0-1.059,0.474-1.059,1.06v9.764h9.763
		C46.982,683.367,47.456,682.893,47.456,682.309z M45.338,681.25h-6.586v-6.588h6.586V681.25z"/>
	<path fill="#FFF3CD" d="M87.638,706.902c0.003-0.285-0.109-0.56-0.311-0.761l-6.46-6.461c-0.207-0.205-0.479-0.311-0.749-0.311
		c-0.265,0-0.528,0.1-0.733,0.295l-6.158,5.912c-4.857-0.922-9.113-3.613-12.026-7.635c-3.024-4.177-4.241-9.279-3.427-14.369
		c0.425-2.66,1.86-4.994,4.041-6.574c2.182-1.58,4.849-2.215,7.508-1.789c2.742,0.438,4.617,3.027,4.179,5.77
		c-0.198,1.24-1.366,2.087-2.608,1.892c-0.203-0.033-0.381-0.144-0.5-0.31c-0.121-0.166-0.169-0.368-0.137-0.569
		c0.092-0.578-0.301-1.121-0.879-1.213c-0.576-0.097-1.119,0.301-1.212,0.879c-0.122,0.76,0.06,1.521,0.513,2.146
		c0.451,0.623,1.119,1.035,1.88,1.156c2.392,0.381,4.651-1.252,5.034-3.646c0.623-3.896-2.039-7.571-5.936-8.194
		c-0.265-0.041-0.528-0.07-0.793-0.094v-21.89H46.977c-0.025-0.264-0.053-0.526-0.096-0.793c-0.623-3.895-4.299-6.559-8.195-5.936
		c-2.393,0.383-4.027,2.643-3.646,5.035c0.122,0.76,0.533,1.428,1.156,1.881c0.625,0.451,1.387,0.633,2.148,0.512
		c0.576-0.094,0.973-0.637,0.877-1.213c-0.092-0.578-0.635-0.971-1.212-0.879c-0.202,0.033-0.405-0.017-0.571-0.135
		c-0.166-0.121-0.275-0.3-0.307-0.5c-0.197-1.244,0.648-2.412,1.889-2.609c2.743-0.439,5.332,1.436,5.771,4.18
		c0.425,2.658-0.211,5.324-1.791,7.506c-1.58,2.183-3.914,3.617-6.574,4.043c-5.09,0.813-10.193-0.403-14.369-3.428
		c-4.021-2.914-6.713-7.168-7.634-12.027l5.911-6.157c0.196-0.205,0.295-0.47,0.295-0.732c0-0.271-0.104-0.543-0.311-0.748
		l-6.461-6.461c-0.201-0.201-0.475-0.313-0.76-0.311c-0.284,0.002-0.555,0.119-0.752,0.325l-6.291,6.554
		c-0.4,0.416-0.393,1.073,0.015,1.481l6.146,6.146v6.146H8.652c-0.585,0-1.059,0.476-1.059,1.062v43.129
		c0,0.584,0.474,1.059,1.059,1.059h13.083v13.082c0,0.586,0.474,1.06,1.059,1.06l43.13,0.001c0.584,0,1.059-0.474,1.059-1.06v-3.563
		h6.147l6.146,6.146c0.407,0.406,1.065,0.414,1.481,0.017l6.555-6.292C87.518,707.459,87.635,707.188,87.638,706.902z
		 M46.999,653.254h19.747v19.748c-1.045,0.082-2.07,0.307-3.058,0.656v-17.347H46.344C46.691,655.324,46.916,654.301,46.999,653.254
		z M44.715,659.428c0.234-0.323,0.445-0.658,0.645-0.998h16.212v16.211c-0.34,0.199-0.675,0.41-0.999,0.646
		c-0.861,0.625-1.615,1.354-2.273,2.154v-15.738H42.561C43.361,661.043,44.091,660.289,44.715,659.428z M27.282,663.699v11.121
		c-0.163,0.004-0.325,0.008-0.489,0.022c-2.113,0.199-3.668,2.082-3.467,4.193c0.135,1.418,1.398,2.463,2.816,2.328
		c0.584-0.056,1.01-0.582,0.955-1.154c-0.056-0.582-0.572-1.01-1.154-0.953c-0.168,0.016-0.286-0.059-0.342-0.104
		s-0.152-0.148-0.168-0.316c-0.09-0.949,0.609-1.795,1.559-1.885c1.074-0.103,2.122,0.221,2.953,0.908
		c0.832,0.686,1.346,1.655,1.447,2.729c0.227,2.394-0.594,4.871-2.197,6.633c-1.383,1.521-3.209,2.357-5.139,2.357
		c-6.452,0-9.724-3.853-9.724-11.447v-25.172C17.016,658.168,21.732,662.041,27.282,663.699z M8.3,639.961l4.825-5.027l4.963,4.966
		l-4.824,5.024L8.3,639.961z M64.865,710.289H23.853v-14.141H9.711v-41.013h2.504v22.994c0,8.748,4.206,13.564,11.842,13.564
		c2.534,0,4.916-1.082,6.705-3.052c1.778-1.954,2.785-4.614,2.785-7.274c0-0.328-0.016-0.654-0.047-0.98
		c-0.155-1.637-0.938-3.114-2.205-4.162c-0.572-0.473-1.215-0.825-1.895-1.063v-10.951c2.366,0.449,4.848,0.508,7.359,0.105
		c0.682-0.109,1.34-0.285,1.981-0.5h17.44v17.44c-0.215,0.642-0.391,1.299-0.499,1.98c-0.401,2.512-0.345,4.994,0.104,7.36H44.838
		c-0.238-0.682-0.592-1.323-1.064-1.895c-1.047-1.269-2.525-2.051-4.162-2.207c-0.325-0.031-0.652-0.045-0.98-0.045
		c-2.659,0-5.32,1.006-7.275,2.783c-1.967,1.791-3.051,4.172-3.051,6.705c0,7.637,4.817,11.842,13.566,11.842h22.994L64.865,710.289
		L64.865,710.289z M41.871,705.668c-7.598,0-11.449-3.271-11.449-9.725c0-1.931,0.838-3.756,2.358-5.14
		c1.762-1.602,4.239-2.424,6.632-2.196c1.073,0.104,2.043,0.616,2.729,1.446c0.687,0.832,1.009,1.881,0.907,2.953
		c-0.09,0.949-0.936,1.648-1.885,1.56c-0.168-0.017-0.27-0.111-0.316-0.168c-0.045-0.056-0.121-0.175-0.104-0.343
		c0.056-0.582-0.372-1.098-0.954-1.151c-0.572-0.058-1.099,0.371-1.154,0.953c-0.135,1.418,0.91,2.682,2.329,2.815
		c2.11,0.201,3.993-1.354,4.192-3.465c0.016-0.164,0.021-0.328,0.023-0.49h11.122c1.657,5.549,5.531,10.267,10.739,12.949
		L41.871,705.668L41.871,705.668z M80.04,711.702l-4.964-4.966l5.027-4.824l4.963,4.965L80.04,711.702z"/>
</g>
</svg>
