<?xml version="1.0" encoding="utf-8"?>
<!-- Generator: Adobe Illustrator 16.0.0, SVG Export Plug-In . SVG Version: 6.00 Build 0)  -->
<!DOCTYPE svg PUBLIC "-//W3C//DTD SVG 1.1//EN" "http://www.w3.org/Graphics/SVG/1.1/DTD/svg11.dtd">
<svg version="1.1" id="Layer_1" xmlns="http://www.w3.org/2000/svg" xmlns:xlink="http://www.w3.org/1999/xlink" x="0px" y="0px"
	 width="120px" height="40px" viewBox="-20.993 0.015 120 40" enable-background="new -20.993 0.015 120 40" xml:space="preserve">
<g>
	<g>
		<path fill="#DBBF91" d="M95.699,37.248H-17.746c-0.24,0-0.48-0.18-0.48-0.48V3.202c0-0.241,0.18-0.481,0.48-0.481H95.699
			c0.24,0,0.481,0.181,0.481,0.481v33.565C96.181,37.068,95.999,37.248,95.699,37.248z M-17.265,36.346H95.278V3.684H-17.265V36.346
			z"/>
	</g>
	<g>
		<path fill="#DBBF91" d="M90.046,40.015H-12.031c-0.241,0-0.481-0.18-0.481-0.481c0-4.39-3.609-8.001-8-8.001
			c-0.241,0-0.481-0.18-0.481-0.479V8.917c0.06-0.24,0.241-0.481,0.541-0.481c4.391,0,7.94-3.549,7.94-7.94
			c0-0.301,0.241-0.481,0.481-0.481H90.046c0.241,0,0.48,0.181,0.48,0.481c0,4.391,3.609,8,8.001,8c0.24,0,0.479,0.181,0.479,0.481
			v22.196c0,0.24-0.18,0.481-0.479,0.481c-4.392,0-8.001,3.609-8.001,7.999C90.467,39.773,90.287,40.015,90.046,40.015z
			 M-11.61,39.114H89.564c0.239-4.574,3.91-8.181,8.42-8.423V9.337c-4.569-0.24-8.181-3.909-8.42-8.421H-11.61
			c-0.24,4.571-3.91,8.181-8.42,8.421v21.294C-15.46,30.873-11.85,34.54-11.61,39.114z"/>
	</g>
</g>
</svg>
