<?xml version="1.0" encoding="utf-8"?>
<!-- Generator: Adobe Illustrator 16.0.0, SVG Export Plug-In . SVG Version: 6.00 Build 0)  -->
<!DOCTYPE svg PUBLIC "-//W3C//DTD SVG 1.1//EN" "http://www.w3.org/Graphics/SVG/1.1/DTD/svg11.dtd">
<svg version="1.1" id="Layer_1" xmlns="http://www.w3.org/2000/svg" xmlns:xlink="http://www.w3.org/1999/xlink" x="0px" y="0px"
	 width="60px" height="60px" viewBox="0 0 60 60" enable-background="new 0 0 60 60" xml:space="preserve">
<g>
	<g>
		
			<rect x="13.951" y="-4.029" transform="matrix(-0.7071 -0.7071 0.7071 -0.7071 16.9428 40.5502)" fill="none" width="5.838" height="41.591"/>
		<path fill="none" stroke="#FFF3CD" d="M37.405,2.939l-0.568-0.568c-4.076,3.044-9.339,3.458-13.363,1.084l-20.38,20.38
			c2.27,3.818,2.012,8.823-0.671,12.848l0.618,0.618 M34.825,5.52l-4.128-4.128L1.288,30.8l4.127,4.128"/>
		<path fill="none" stroke="#FFF3CD" d="M23.989,58.248l0.62,0.62c4.023-2.683,9.028-2.94,12.847-0.671l20.381-20.381
			c-2.374-4.024-1.962-9.287,1.083-13.362l-0.567-0.567 M26.362,55.875l4.128,4.127l29.409-29.408l-4.127-4.127"/>
		<path fill="none" stroke="#FFF3CD" d="M37.4,2.936l21.389,21.388 M34.821,5.516l21.388,21.388 M5.412,34.925L26.8,56.312
			 M3.038,37.298l21.388,21.389"/>
	</g>
	<path fill="#FFF3CD" d="M42.648,22.154c-0.932,0.413-1.934,0.692-2.982,0.819c1.072-0.644,1.895-1.664,2.281-2.872
		c-1,0.593-2.113,1.024-3.295,1.259c-0.947-1.009-2.295-1.64-3.785-1.64c-2.869,0-5.192,2.323-5.192,5.189
		c0,0.409,0.047,0.804,0.133,1.185c-4.313-0.217-8.133-2.284-10.695-5.422c-0.445,0.764-0.701,1.657-0.701,2.607
		c0,1.801,0.914,3.389,2.307,4.32c-0.85-0.028-1.648-0.262-2.35-0.65v0.066c0,2.514,1.791,4.611,4.164,5.09
		c-0.436,0.115-0.896,0.18-1.365,0.18c-0.34,0-0.662-0.031-0.98-0.092c0.66,2.062,2.58,3.563,4.852,3.604
		c-1.779,1.393-4.018,2.221-6.449,2.221c-0.416,0-0.832-0.023-1.236-0.07c2.297,1.473,5.023,2.331,7.955,2.331
		c9.546,0,14.763-7.908,14.763-14.767c0-0.223-0.004-0.449-0.016-0.671C41.068,24.107,41.951,23.195,42.648,22.154"/>
</g>
</svg>
