<?xml version="1.0" encoding="utf-8"?>
<!-- Generator: Adobe Illustrator 16.0.0, SVG Export Plug-In . SVG Version: 6.00 Build 0)  -->
<!DOCTYPE svg PUBLIC "-//W3C//DTD SVG 1.1//EN" "http://www.w3.org/Graphics/SVG/1.1/DTD/svg11.dtd">
<svg version="1.1" id="Layer_1" xmlns="http://www.w3.org/2000/svg" xmlns:xlink="http://www.w3.org/1999/xlink" x="0px" y="0px"
	 width="60px" height="60px" viewBox="0 0 60 60" enable-background="new 0 0 60 60" xml:space="preserve">
<g>
	<g>
		
			<rect x="13.951" y="-4.029" transform="matrix(-0.7071 -0.7071 0.7071 -0.7071 16.9428 40.5502)" fill="none" width="5.838" height="41.591"/>
		<path fill="none" stroke="#FFF3CD" d="M37.405,2.939l-0.568-0.568c-4.076,3.044-9.339,3.458-13.363,1.084l-20.38,20.38
			c2.27,3.818,2.012,8.823-0.671,12.848l0.618,0.618 M34.825,5.52l-4.128-4.128L1.288,30.8l4.127,4.128"/>
		<path fill="none" stroke="#FFF3CD" d="M23.989,58.248l0.62,0.62c4.023-2.683,9.028-2.94,12.847-0.671l20.381-20.381
			c-2.374-4.024-1.962-9.287,1.083-13.362l-0.567-0.567 M26.362,55.875l4.128,4.127l29.409-29.408l-4.127-4.127"/>
		<path fill="none" stroke="#FFF3CD" d="M37.4,2.936l21.389,21.388 M34.821,5.516l21.388,21.388 M5.412,34.925L26.8,56.312
			 M3.038,37.298l21.388,21.389"/>
	</g>
	<g>
		<path fill="#FFF3CD" d="M40.713,25.02c-0.422-1.689-1.213-2.338-2.666-2.571c-0.836-0.124-4.855-0.282-8.048-0.282
			c-3.191,0-7.211,0.158-8.047,0.282c-1.453,0.233-2.244,0.886-2.664,2.571c-0.143,0.563-0.336,3.668-0.336,4.85v0.262
			c0,1.184,0.193,4.286,0.336,4.853c0.42,1.685,1.211,2.334,2.664,2.567c0.836,0.125,4.861,0.281,8.055,0.281l-0.014,0.002
			c3.194,0,7.216-0.158,8.054-0.283c1.453-0.233,2.244-0.883,2.666-2.567c0.141-0.566,0.336-3.669,0.336-4.853v-0.262
			C41.049,28.688,40.854,25.582,40.713,25.02z M27.351,32.832v-5.664l5.298,2.766L27.351,32.832z"/>
	</g>
</g>
</svg>
