<?xml version="1.0" encoding="utf-8"?>
<!-- Generator: Adobe Illustrator 16.0.0, SVG Export Plug-In . SVG Version: 6.00 Build 0)  -->
<!DOCTYPE svg PUBLIC "-//W3C//DTD SVG 1.1//EN" "http://www.w3.org/Graphics/SVG/1.1/DTD/svg11.dtd">
<svg version="1.1" id="Layer_1" xmlns="http://www.w3.org/2000/svg" xmlns:xlink="http://www.w3.org/1999/xlink" x="0px" y="0px"
	 width="60px" height="60px" viewBox="0 0 60 60" enable-background="new 0 0 60 60" xml:space="preserve">
<g>
	<g>
		
			<rect x="13.951" y="-4.031" transform="matrix(-0.7071 -0.7071 0.7071 -0.7071 16.9442 40.5468)" fill="none" width="5.838" height="41.591"/>
		<path fill="none" stroke="#FFF3CD" d="M37.405,2.938l-0.568-0.568c-4.076,3.044-9.339,3.458-13.363,1.084l-20.38,20.38
			c2.27,3.818,2.012,8.823-0.671,12.848l0.618,0.618 M34.825,5.518L30.697,1.39L1.288,30.798l4.127,4.128"/>
		<path fill="none" stroke="#FFF3CD" d="M23.989,58.246l0.62,0.62c4.023-2.683,9.028-2.94,12.847-0.671l20.381-20.381
			c-2.374-4.024-1.962-9.287,1.083-13.362l-0.567-0.567 M26.362,55.873L30.49,60l29.409-29.408l-4.127-4.127"/>
		<path fill="none" stroke="#FFF3CD" d="M37.4,2.934l21.389,21.388 M34.821,5.514l21.388,21.388 M5.412,34.923L26.8,56.31
			 M3.038,37.296l21.388,21.389"/>
	</g>
	<path fill="#FFF3CD" d="M32.914,46.874v-14.83h4.978l0.744-5.779h-5.722v-3.689c0-1.674,0.464-2.814,2.863-2.814l3.062-0.002
		v-5.168c-0.529-0.07-2.348-0.229-4.461-0.229c-4.411,0-7.434,2.693-7.434,7.641v4.262h-4.99v5.779h4.99v14.83H32.914z"/>
</g>
</svg>
