<?xml version="1.0" encoding="utf-8"?>
<!-- Generator: Adobe Illustrator 16.0.0, SVG Export Plug-In . SVG Version: 6.00 Build 0)  -->
<!DOCTYPE svg PUBLIC "-//W3C//DTD SVG 1.1//EN" "http://www.w3.org/Graphics/SVG/1.1/DTD/svg11.dtd">
<svg version="1.1" id="Layer_1" xmlns="http://www.w3.org/2000/svg" xmlns:xlink="http://www.w3.org/1999/xlink" x="0px" y="0px"
	 width="60px" height="60px" viewBox="0 0 60 60" enable-background="new 0 0 60 60" xml:space="preserve">
<g>
	<g>
		
			<rect x="13.951" y="-4.03" transform="matrix(0.7071 0.7071 -0.7071 0.7071 16.7961 -7.0181)" fill="none" width="5.838" height="41.591"/>
		<path fill="none" stroke="#FFF3CD" d="M37.404,2.939l-0.567-0.568c-4.075,3.044-9.339,3.458-13.363,1.084l-20.38,20.38
			c2.271,3.818,2.012,8.823-0.671,12.849l0.618,0.617 M34.825,5.52l-4.128-4.128L1.288,30.8l4.127,4.128"/>
		<path fill="none" stroke="#FFF3CD" d="M23.989,58.248l0.62,0.62c4.023-2.683,9.028-2.94,12.847-0.671l20.381-20.381
			c-2.374-4.024-1.962-9.288,1.083-13.362l-0.566-0.567 M26.362,55.875l4.128,4.127l29.408-29.408l-4.127-4.127"/>
		<path fill="none" stroke="#FFF3CD" d="M37.4,2.936l21.389,21.388 M34.82,5.516l21.389,21.388 M5.412,34.925L26.8,56.313
			 M3.038,37.298l21.388,21.39"/>
	</g>
</g>
<g>
	<path fill="#FFF3CD" d="M24.712,23.9h6.485c0.017,0,0.031-0.001,0.049-0.003c0.051-0.009,5.107-0.827,5.193-5.958
		c0.002-0.086-0.03-0.169-0.091-0.23c-0.063-0.063-0.147-0.097-0.232-0.097l-6.138,0.003c-0.05,0.007-5.152,0.793-5.583,5.938
		c-0.011,0.09,0.022,0.177,0.085,0.246C24.538,23.864,24.625,23.9,24.712,23.9z"/>
	<path fill="#FFF3CD" d="M41.173,26.434h-2.704h-3.208H19.322c-0.177,0-0.322,0.142-0.322,0.322v5.864c0,0,0.2,9.77,9.893,9.77
		c7.322,0,9.229-5.571,9.72-8.297h2.56c2.11,0,3.827-1.72,3.827-3.833C45,28.151,43.283,26.434,41.173,26.434z M41.084,32.099
		c-1.027,0-1.859-0.831-1.859-1.86c0-1.028,0.832-1.86,1.859-1.86c1.024,0,1.858,0.832,1.858,1.86
		C42.942,31.268,42.108,32.099,41.084,32.099z"/>
</g>
</svg>
