<?xml version="1.0" encoding="utf-8"?>
<!-- Generator: Adobe Illustrator 16.0.0, SVG Export Plug-In . SVG Version: 6.00 Build 0)  -->
<!DOCTYPE svg PUBLIC "-//W3C//DTD SVG 1.1//EN" "http://www.w3.org/Graphics/SVG/1.1/DTD/svg11.dtd">
<svg version="1.1" id="Layer_1" xmlns="http://www.w3.org/2000/svg" xmlns:xlink="http://www.w3.org/1999/xlink" x="0px" y="0px"
	 width="60px" height="60px" viewBox="0 0 60 60" enable-background="new 0 0 60 60" xml:space="preserve">
<g>
	
		<rect x="13.951" y="-4.03" transform="matrix(0.7071 0.7071 -0.7071 0.7071 16.7961 -7.0181)" fill="none" width="5.838" height="41.591"/>
	<path fill="none" stroke="#FFF3CD" d="M37.404,2.939l-0.567-0.568c-4.075,3.044-9.339,3.458-13.363,1.084l-20.38,20.38
		c2.271,3.818,2.012,8.823-0.671,12.849l0.618,0.617 M34.825,5.52l-4.128-4.128L1.288,30.8l4.127,4.128"/>
	<path fill="none" stroke="#FFF3CD" d="M23.989,58.248l0.62,0.62c4.023-2.683,9.028-2.94,12.847-0.671l20.381-20.381
		c-2.374-4.024-1.962-9.288,1.083-13.362l-0.566-0.567 M26.362,55.875l4.128,4.127l29.408-29.408l-4.127-4.127"/>
	<path fill="none" stroke="#FFF3CD" d="M37.4,2.936l21.389,21.388 M34.82,5.516l21.389,21.388 M5.412,34.925L26.8,56.313
		 M3.038,37.298l21.388,21.39"/>
</g>
<path fill="#FFF3CD" d="M30.696,1.392L1.289,30.8l29.203,29.203l29.408-29.408L30.696,1.392z M40.073,25.512
	c0,6.859-5.218,14.767-14.763,14.767c-2.932,0-5.658-0.858-7.955-2.331c0.404,0.047,0.82,0.069,1.236,0.069
	c2.431,0,4.67-0.828,6.449-2.221c-2.272-0.041-4.192-1.542-4.852-3.604c0.318,0.061,0.64,0.092,0.98,0.092
	c0.469,0,0.929-0.064,1.365-0.18c-2.373-0.479-4.164-2.577-4.164-5.09v-0.066c0.702,0.388,1.5,0.622,2.35,0.65
	c-1.393-0.931-2.307-2.519-2.307-4.32c0-0.95,0.256-1.843,0.701-2.607c2.562,3.138,6.382,5.205,10.695,5.422
	c-0.086-0.381-0.133-0.776-0.133-1.185c0-2.866,2.323-5.189,5.192-5.189c1.49,0,2.838,0.631,3.785,1.64
	c1.182-0.235,2.295-0.666,3.295-1.259c-0.387,1.208-1.209,2.228-2.281,2.872c1.048-0.127,2.05-0.406,2.982-0.819
	c-0.697,1.041-1.58,1.953-2.592,2.687C40.068,25.063,40.073,25.289,40.073,25.512z"/>
</svg>
