<?xml version="1.0" encoding="utf-8"?>
<!-- Generator: Adobe Illustrator 16.0.0, SVG Export Plug-In . SVG Version: 6.00 Build 0)  -->
<!DOCTYPE svg PUBLIC "-//W3C//DTD SVG 1.1//EN" "http://www.w3.org/Graphics/SVG/1.1/DTD/svg11.dtd">
<svg version="1.1" id="Layer_1" xmlns="http://www.w3.org/2000/svg" xmlns:xlink="http://www.w3.org/1999/xlink" x="0px" y="0px"
	 width="60px" height="60px" viewBox="0 0 60 60" enable-background="new 0 0 60 60" xml:space="preserve">
<rect x="-62.548" y="10.162" transform="matrix(0.7071 -0.7071 0.7071 0.7071 -34.0162 -20.4993)" fill="#FFF3CD" width="41.589" height="41.299"/>
<g>
	<g>
		
			<rect x="13.951" y="-4.03" transform="matrix(0.7071 0.7071 -0.7071 0.7071 16.7961 -7.0181)" fill="none" width="5.838" height="41.591"/>
		<path fill="none" stroke="#FFF3CD" d="M37.404,2.939l-0.567-0.568c-4.075,3.044-9.339,3.458-13.363,1.084l-20.38,20.38
			c2.271,3.818,2.012,8.823-0.671,12.849l0.618,0.617 M34.825,5.52l-4.128-4.128L1.288,30.8l4.127,4.128"/>
		<path fill="none" stroke="#FFF3CD" d="M23.989,58.248l0.62,0.62c4.023-2.683,9.028-2.94,12.847-0.671l20.381-20.381
			c-2.374-4.024-1.962-9.288,1.083-13.362l-0.566-0.567 M26.362,55.875l4.128,4.127l29.408-29.408l-4.127-4.127"/>
		<path fill="none" stroke="#FFF3CD" d="M37.4,2.936l21.389,21.388 M34.82,5.516l21.389,21.388 M5.412,34.925L26.8,56.313
			 M3.038,37.298l21.388,21.39"/>
	</g>
</g>
<path fill="#FFF3CD" d="M31.017,1.507L1.608,30.914l29.202,29.203l29.408-29.408L31.017,1.507z M29.979,17.615l6.138-0.003
	c0.085,0,0.169,0.034,0.232,0.097c0.061,0.061,0.093,0.144,0.091,0.23c-0.086,5.132-5.143,5.95-5.193,5.958
	c-0.018,0.002-0.032,0.003-0.049,0.003h-6.485c-0.087,0-0.174-0.037-0.232-0.103c-0.063-0.069-0.096-0.156-0.085-0.246
	C24.827,18.408,29.929,17.622,29.979,17.615z M41.173,34.092h-2.56c-0.491,2.726-2.398,8.297-9.72,8.297
	c-9.693,0-9.893-9.77-9.893-9.77v-5.864c0-0.18,0.145-0.322,0.322-0.322h15.939h3.208h2.704c2.11,0,3.827,1.717,3.827,3.825
	C45,32.372,43.283,34.092,41.173,34.092z"/>
<circle fill="#FFF3CD" cx="41.084" cy="30.238" r="1.86"/>
</svg>
