<?xml version="1.0" encoding="utf-8"?>
<!-- Generator: Adobe Illustrator 16.0.0, SVG Export Plug-In . SVG Version: 6.00 Build 0)  -->
<!DOCTYPE svg PUBLIC "-//W3C//DTD SVG 1.1//EN" "http://www.w3.org/Graphics/SVG/1.1/DTD/svg11.dtd">
<svg version="1.1" id="Layer_1" xmlns="http://www.w3.org/2000/svg" xmlns:xlink="http://www.w3.org/1999/xlink" x="0px" y="0px"
	 width="60px" height="60px" viewBox="0 0 60 60" enable-background="new 0 0 60 60" xml:space="preserve">
<g>
	
		<rect x="13.951" y="-4.03" transform="matrix(0.7071 0.7071 -0.7071 0.7071 16.7961 -7.0181)" fill="none" width="5.838" height="41.591"/>
	<path fill="none" stroke="#FFF3CD" d="M37.404,2.939l-0.567-0.568c-4.075,3.044-9.339,3.458-13.363,1.084l-20.38,20.38
		c2.271,3.818,2.012,8.823-0.671,12.849l0.618,0.617 M34.825,5.52l-4.128-4.128L1.288,30.8l4.127,4.128"/>
	<path fill="none" stroke="#FFF3CD" d="M23.989,58.248l0.62,0.62c4.023-2.683,9.028-2.94,12.847-0.671l20.381-20.381
		c-2.374-4.024-1.962-9.288,1.083-13.362l-0.566-0.567 M26.362,55.875l4.128,4.127l29.408-29.408l-4.127-4.127"/>
	<path fill="none" stroke="#FFF3CD" d="M37.4,2.936l21.389,21.388 M34.82,5.516l21.389,21.388 M5.412,34.925L26.8,56.313
		 M3.038,37.298l21.388,21.39"/>
</g>
<polygon fill="#FFF3CD" points="27.351,32.832 32.648,29.934 27.351,27.168 "/>
<path fill="#FFF3CD" d="M30.696,1.507L1.288,30.914L30.49,60.117l29.408-29.408L30.696,1.507z M40.713,34.984
	c-0.422,1.685-1.213,2.334-2.666,2.567c-0.838,0.125-4.859,0.283-8.054,0.283l0.014-0.002c-3.194,0-7.219-0.156-8.055-0.281
	c-1.453-0.233-2.244-0.882-2.664-2.567c-0.143-0.566-0.336-3.668-0.336-4.853V29.87c0-1.182,0.193-4.287,0.336-4.85
	c0.42-1.685,1.211-2.338,2.664-2.571c0.836-0.124,4.856-0.282,8.047-0.282c3.192,0,7.212,0.158,8.048,0.282
	c1.453,0.233,2.244,0.882,2.666,2.571c0.141,0.562,0.336,3.668,0.336,4.85v0.262C41.049,31.316,40.854,34.419,40.713,34.984z"/>
</svg>
