<?xml version="1.0" encoding="utf-8"?>
<!-- Generator: Adobe Illustrator 16.0.0, SVG Export Plug-In . SVG Version: 6.00 Build 0)  -->
<!DOCTYPE svg PUBLIC "-//W3C//DTD SVG 1.1//EN" "http://www.w3.org/Graphics/SVG/1.1/DTD/svg11.dtd">
<svg version="1.1" id="Layer_1" xmlns="http://www.w3.org/2000/svg" xmlns:xlink="http://www.w3.org/1999/xlink" x="0px" y="0px"
	 width="60px" height="60px" viewBox="0 0 60 60" enable-background="new 0 0 60 60" xml:space="preserve">
<g>
	
		<rect x="13.951" y="-4.032" transform="matrix(0.7071 0.7071 -0.7071 0.7071 16.7947 -7.0187)" fill="none" width="5.838" height="41.591"/>
	<path fill="none" stroke="#FFF3CD" d="M37.404,2.938L36.837,2.37c-4.075,3.044-9.339,3.458-13.363,1.084l-20.38,20.38
		c2.271,3.818,2.012,8.823-0.671,12.848L3.041,37.3 M34.825,5.518L30.697,1.39L1.288,30.798l4.127,4.128"/>
	<path fill="none" stroke="#FFF3CD" d="M23.989,58.246l0.62,0.62c4.023-2.683,9.028-2.94,12.847-0.671l20.381-20.381
		c-2.374-4.024-1.962-9.288,1.083-13.362l-0.566-0.567 M26.362,55.873L30.49,60l29.408-29.408l-4.127-4.127"/>
	<path fill="none" stroke="#FFF3CD" d="M37.4,2.934l21.389,21.388 M34.82,5.514l21.389,21.388 M5.412,34.923L26.8,56.311
		 M3.038,37.296l21.388,21.39"/>
</g>
<path fill="#FFF3CD" d="M30.697,1.505L1.289,30.912l29.202,29.203l29.409-29.408L30.697,1.505z M38.637,26.265l-0.744,5.779h-4.979
	v14.83v0.001h-5.97v-14.83h-4.99v-5.779h4.99v-4.262c0-4.948,3.023-7.641,7.434-7.641c2.113,0,3.933,0.159,4.461,0.229v5.168
	l-3.062,0.002c-2.399,0-2.863,1.14-2.863,2.814v3.689H38.637z"/>
</svg>
