<?xml version="1.0" encoding="utf-8"?>
<!-- Generator: Adobe Illustrator 16.0.0, SVG Export Plug-In . SVG Version: 6.00 Build 0)  -->
<!DOCTYPE svg PUBLIC "-//W3C//DTD SVG 1.1//EN" "http://www.w3.org/Graphics/SVG/1.1/DTD/svg11.dtd">
<svg version="1.1" id="Layer_1" xmlns="http://www.w3.org/2000/svg" xmlns:xlink="http://www.w3.org/1999/xlink" x="0px" y="0px"
	 width="592.272px" height="592.272px" viewBox="144.173 -2.62 592.272 592.272"
	 enable-background="new 144.173 -2.62 592.272 592.272" xml:space="preserve">
<g>
	<rect x="170.682" y="44.024" fill="none" width="70.034" height="498.984"/>
	<path fill="none" stroke="#533F2B" stroke-width="15" d="M262.602,2.004h-9.63c-8.754,60.403-49.898,108.551-104.176,122.558
		V470.35c51.65,13.131,91.92,57.775,103.3,114.678h10.506 M262.602,45.775h-70.033v498.984h70.033"/>
	<path fill="none" stroke="#533F2B" stroke-width="15" d="M618.017,585.028h10.506c11.38-56.902,51.649-101.547,103.299-114.678
		V124.561c-54.276-14.006-95.421-62.154-104.175-122.557h-9.63 M618.017,544.759h70.033V45.774h-70.033"/>
	<path fill="none" stroke="#533F2B" stroke-width="15" d="M262.54,2.004h362.893 M262.54,45.775h362.893 M262.54,544.759h362.893
		 M262.54,585.028h362.893"/>
</g>
<path fill="#533F2B" d="M192.569,45.775v498.984h495.481V45.775H192.569z M588.355,409.742c8.786,8.787,8.786,23.033,0,31.82
	c-4.394,4.394-10.152,6.59-15.91,6.59s-11.517-2.196-15.91-6.59L440.309,325.337L324.083,441.562
	c-4.393,4.394-10.151,6.59-15.91,6.59s-11.517-2.196-15.91-6.59c-8.787-8.787-8.787-23.033,0-31.82l116.226-116.226L292.263,177.29
	c-8.787-8.787-8.787-23.033,0-31.82c8.787-8.786,23.034-8.786,31.82,0l116.226,116.226L556.535,145.47
	c8.787-8.786,23.033-8.786,31.82,0c8.786,8.787,8.786,23.033,0,31.82L472.13,293.516L588.355,409.742z"/>
</svg>
