<?xml version="1.0" encoding="utf-8"?>
<!-- Generator: Adobe Illustrator 16.0.0, SVG Export Plug-In . SVG Version: 6.00 Build 0)  -->
<!DOCTYPE svg PUBLIC "-//W3C//DTD SVG 1.1//EN" "http://www.w3.org/Graphics/SVG/1.1/DTD/svg11.dtd">
<svg version="1.1" id="Layer_1" xmlns="http://www.w3.org/2000/svg" xmlns:xlink="http://www.w3.org/1999/xlink" x="0px" y="0px"
	 width="592.271px" height="592.273px" viewBox="0 0 592.271 592.273" enable-background="new 0 0 592.271 592.273"
	 xml:space="preserve">
<g>
	<rect x="26.509" y="46.644" fill="none" width="70.034" height="498.983"/>
	<path fill="none" stroke="#FFF3CD" stroke-width="15" d="M118.429,4.624h-9.63C100.044,65.027,58.901,113.175,4.623,127.182
		v345.787c51.65,13.133,91.92,57.775,103.3,114.68h10.506 M118.429,48.395H48.396v498.984h70.033"/>
	<path fill="none" stroke="#FFF3CD" stroke-width="15" d="M473.843,587.649h10.508c11.379-56.902,51.648-101.547,103.299-114.68
		V127.181c-54.277-14.006-95.422-62.154-104.176-122.557h-9.631 M473.843,547.379h70.033V48.394h-70.033"/>
	<path fill="none" stroke="#FFF3CD" stroke-width="15" d="M118.367,4.624h362.892 M118.367,48.395h362.892 M118.367,547.379h362.892
		 M118.367,587.649h362.892"/>
</g>
<path fill="#FFF3CD" d="M474.619,438.932c-0.653-1.564-1.51-3.13-2.617-4.78c-12.403-18.508-37.511-29.864-56.886-36.219
	L313.33,296.135L415.123,194.34c19.368-6.354,44.471-17.709,56.89-36.232c1.116-1.679,1.97-3.243,2.609-4.781l3.268-7.855
	l-8.505,0.246c-0.214,0.006-0.429,0.009-0.644,0.009c-5.917,0-11.487-2.312-15.685-6.509c-4.37-4.369-6.68-10.17-6.503-16.334
	l0.243-8.537l-7.872,3.309c-1.572,0.661-3.135,1.517-4.777,2.619c-18.503,12.403-29.859,37.507-36.216,56.879L296.136,278.947
	L194.344,177.154c-6.359-19.373-17.717-44.478-36.217-56.879c-1.645-1.103-3.209-1.96-4.783-2.62l-7.872-3.303l0.247,8.533
	c0.178,6.163-2.13,11.963-6.498,16.333c-4.349,4.35-10.204,6.676-16.334,6.499l-8.542-0.247l3.314,7.877
	c0.65,1.545,1.503,3.103,2.618,4.778c12.406,18.504,37.508,29.859,56.877,36.214l101.794,101.795L177.156,397.932
	c-19.369,6.349-44.47,17.7-56.877,36.215c-1.083,1.611-1.963,3.215-2.618,4.765l-3.324,7.872l8.542-0.234
	c6.136-0.172,11.997,2.159,16.34,6.502c4.369,4.372,6.677,10.173,6.499,16.335l-0.248,8.572l7.894-3.351
	c1.555-0.659,3.107-1.509,4.762-2.609c18.5-12.399,29.859-37.506,36.218-56.881l101.792-101.797l101.796,101.797
	c6.359,19.377,17.719,44.483,36.234,56.894c1.635,1.086,3.185,1.936,4.737,2.596l7.896,3.356l-0.245-8.575
	c-0.177-6.164,2.134-11.966,6.503-16.335c4.347-4.345,10.212-6.681,16.336-6.504l8.504,0.234L474.619,438.932z"/>
</svg>
