<?xml version="1.0" encoding="utf-8"?>
<!-- Generator: Adobe Illustrator 16.0.0, SVG Export Plug-In . SVG Version: 6.00 Build 0)  -->
<!DOCTYPE svg PUBLIC "-//W3C//DTD SVG 1.1//EN" "http://www.w3.org/Graphics/SVG/1.1/DTD/svg11.dtd">
<svg version="1.1" id="Layer_1" xmlns="http://www.w3.org/2000/svg" xmlns:xlink="http://www.w3.org/1999/xlink" x="0px" y="0px"
	 width="592.271px" height="592.273px" viewBox="0 0 592.271 592.273" enable-background="new 0 0 592.271 592.273"
	 xml:space="preserve">
<g>
	<rect x="26.509" y="46.644" fill="none" width="70.034" height="498.983"/>
	<path fill="none" stroke="#FFF3CD" stroke-width="15" d="M118.429,4.624h-9.63C100.044,65.027,58.901,113.175,4.623,127.182
		v345.787c51.65,13.133,91.92,57.775,103.3,114.68h10.506 M118.429,48.395H48.396v498.984h70.033"/>
	<path fill="none" stroke="#FFF3CD" stroke-width="15" d="M473.843,587.649h10.508c11.379-56.902,51.648-101.547,103.299-114.68
		V127.181c-54.277-14.006-95.422-62.154-104.176-122.557h-9.631 M473.843,547.379h70.033V48.394h-70.033"/>
	<path fill="none" stroke="#FFF3CD" stroke-width="15" d="M118.367,4.624h362.892 M118.367,48.395h362.892 M118.367,547.379h362.892
		 M118.367,587.649h362.892"/>
</g>
<path fill="#FFF3CD" d="M48.396,46.644v498.984h495.48V46.644H48.396z M469.412,446.531c-6.124-0.178-11.989,2.158-16.336,6.504
	c-4.369,4.369-6.68,10.17-6.503,16.334l0.245,8.576l-7.896-3.357c-1.553-0.66-3.103-1.51-4.737-2.596
	c-18.516-12.41-29.875-37.516-36.234-56.893L296.155,313.302L194.363,415.099c-6.358,19.375-17.718,44.48-36.218,56.881
	c-1.654,1.1-3.207,1.949-4.762,2.609l-7.895,3.35l0.248-8.572c0.178-6.162-2.129-11.963-6.498-16.334
	c-4.344-4.344-10.205-6.674-16.341-6.502l-8.543,0.234l3.324-7.873c0.655-1.549,1.536-3.152,2.618-4.764
	c12.407-18.516,37.508-29.867,56.877-36.215l101.793-101.797L177.173,194.321c-19.369-6.354-44.472-17.71-56.878-36.214
	c-1.114-1.675-1.968-3.232-2.618-4.778l-3.313-7.877l8.542,0.247c6.131,0.177,11.986-2.149,16.335-6.499
	c4.368-4.37,6.675-10.17,6.497-16.333l-0.246-8.533l7.872,3.303c1.573,0.66,3.138,1.518,4.783,2.62
	c18.499,12.401,29.858,37.506,36.217,56.879l101.792,101.792l101.796-101.792c6.356-19.372,17.713-44.476,36.216-56.879
	c1.643-1.102,3.205-1.958,4.777-2.619l7.872-3.309l-0.243,8.537c-0.177,6.164,2.133,11.965,6.503,16.334
	c4.197,4.197,9.768,6.509,15.685,6.509c0.215,0,0.43-0.003,0.644-0.009l8.505-0.246l-3.268,7.855
	c-0.64,1.539-1.493,3.103-2.609,4.781c-12.419,18.523-37.521,29.878-56.89,36.232L313.35,296.116l101.786,101.797
	c19.375,6.355,44.482,17.711,56.886,36.219c1.107,1.65,1.964,3.217,2.617,4.781l3.277,7.852L469.412,446.531z"/>
</svg>
