<?xml version="1.0" encoding="utf-8"?>
<!-- Generator: Adobe Illustrator 22.0.1, SVG Export Plug-In . SVG Version: 6.00 Build 0)  -->
<svg version="1.1" id="Layer_1" xmlns="http://www.w3.org/2000/svg" xmlns:xlink="http://www.w3.org/1999/xlink" x="0px" y="0px"
	 viewBox="0 0 289.7 47.5" style="enable-background:new 0 0 289.7 47.5;" xml:space="preserve">
<g>
	<polygon points="48.2,0.5 40.1,0.5 13.4,24.8 21,0.5 14.4,0.5 0,47.1 6.5,47.1 10.7,33.5 21.2,24.3 27.7,47.1 35.7,47.1 27.6,18.7 
			"/>
	<path d="M69.2,0.5L37.6,47.1h7l6.7-10.2h18.8l0.3,10.2h7L74.8,0.5H69.2z M55.4,30.6L69.2,9.5l0.7,21.1H55.4z"/>
	<polygon points="116.1,35.3 104.9,0.5 99,0.5 84.6,47 91,47 101.7,12.8 113,47 119,47 133.4,0.5 126.9,0.5 	"/>
	<path d="M152,28.2h9.4l-0.6,2c-0.7,2.3-1.7,4.2-3,5.9c-1.3,1.6-2.8,2.9-4.5,3.8c-1.7,0.9-3.5,1.3-5.5,1.3c-1.9,0-3.5-0.4-4.8-1.2
		c-1.2-0.8-2-2-2.4-3.5c-0.3-1.5-0.2-3.3,0.4-5.3l4.3-13.7c0.7-2.2,1.7-4.1,3-5.8c1.3-1.7,2.8-2.9,4.6-3.9c1.7-0.9,3.6-1.4,5.5-1.4
		c1.3,0,2.5,0.3,3.6,0.9c1.1,0.6,1.9,1.4,2.4,2.6c0.6,1.1,0.8,2.5,0.7,4h7.1c0.3-2.8,0-5.2-0.8-7.3c-0.9-2.1-2.3-3.7-4.2-4.9
		c-1.9-1.1-4.2-1.7-6.9-1.7c-3.2,0-6.3,0.7-9.2,2.2c-2.9,1.4-5.4,3.5-7.6,6.1c-2.2,2.6-3.8,5.7-4.8,9.1l-4.3,13.7
		c-1,3.3-1.2,6.1-0.6,8.6c0.6,2.5,1.9,4.4,4,5.7c2.1,1.4,4.7,2,8,2c3.2,0,6.3-0.7,9.2-2.2c2.9-1.4,5.4-3.5,7.6-6.1
		c2.2-2.6,3.8-5.7,4.9-9.1l2.5-8.1H154L152,28.2z"/>
	<polygon points="211.9,6.7 213.8,0.5 180.9,0.5 179,6.7 192.2,6.7 179.7,47.1 186.2,47.1 198.7,6.7 	"/>
	<path d="M230,0.5l-31.6,46.6h7l6.7-10.2h18.8l0.3,10.2h7l-2.7-46.6H230z M216.2,30.6L230,9.5l0.7,21.1H216.2z"/>
	<polygon points="287.8,6.7 289.7,0.5 266.3,0.5 263,0.5 259.8,0.5 245.4,47.1 248.5,47.1 251.9,47.1 275.3,47.1 277.2,40.8 
		253.8,40.8 258.1,27 278,27 279.9,20.8 260,20.8 264.4,6.7 	"/>
</g>
</svg>
