<?xml version="1.0" encoding="utf-8"?>
<!-- Generator: Adobe Illustrator 22.0.1, SVG Export Plug-In . SVG Version: 6.00 Build 0)  -->
<svg version="1.1" id="Layer_1" xmlns="http://www.w3.org/2000/svg" xmlns:xlink="http://www.w3.org/1999/xlink" x="0px" y="0px"
	 width="388px" height="89px" viewBox="0 0 388 89" style="enable-background:new 0 0 388 89;" xml:space="preserve">
<g>
	<polygon style="fill:none;" points="270.6,54.2 275.2,32.8 256.2,54.2 	"/>
	<polygon style="fill:none;" points="111.5,54.2 116.2,32.8 97.2,54.2 	"/>
	<polygon points="97.6,23.7 89.7,23.7 57.1,48.3 70.7,23.7 64.2,23.7 38.2,70.8 44.7,70.8 52.2,57.1 64.9,47.8 65.6,70.8 73.5,70.8 
		72.7,42.1 	"/>
	<path d="M118.4,23.7l-43,47.1l7,0l9.2-10.3l18.6,0l-2.2,10.3l7,0l9-47.1L118.4,23.7z M111.5,54.2l-14.4,0l19-21.4L111.5,54.2z"/>
	<polygon points="175.5,23.7 156.1,58.9 153.8,23.7 147.9,23.7 121.9,70.8 128.3,70.8 147.4,36.1 150,70.8 155.9,70.8 181.9,23.7 	
		"/>
	<path d="M193.4,51.8l9.3,0l-1.1,2c-1.3,2.3-2.7,4.3-4.4,5.9c-1.7,1.7-3.5,2.9-5.4,3.8c-1.9,0.9-3.8,1.3-5.7,1.3
		c-1.9,0-3.4-0.4-4.4-1.3c-1-0.8-1.5-2-1.4-3.5c0-1.5,0.6-3.3,1.7-5.3l7.7-13.9c1.2-2.2,2.7-4.2,4.4-5.8c1.7-1.7,3.5-3,5.5-3.9
		c1.9-0.9,3.9-1.4,5.8-1.4c1.3,0,2.4,0.3,3.3,0.9c0.9,0.6,1.5,1.5,1.8,2.6s0.2,2.5-0.3,4.1l7,0c1-2.8,1.4-5.2,1-7.3
		c-0.3-2.1-1.3-3.8-2.9-4.9c-1.6-1.2-3.7-1.7-6.3-1.7c-3.2,0-6.4,0.7-9.7,2.2c-3.2,1.5-6.3,3.5-9.1,6.2c-2.8,2.7-5.2,5.7-7.1,9.2
		l-7.7,13.9c-1.8,3.3-2.8,6.2-2.8,8.7c0,2.5,0.8,4.4,2.5,5.8c1.7,1.4,4.2,2.1,7.4,2.1c3.2,0,6.4-0.7,9.7-2.2
		c3.2-1.5,6.3-3.5,9.1-6.2c2.8-2.7,5.2-5.7,7.1-9.2l4.5-8.2l-16,0L193.4,51.8z"/>
	<polygon points="258,30 261.5,23.7 229,23.7 225.5,30 238.5,30 216,70.8 222.4,70.8 245,30 	"/>
	<path d="M277.5,23.7l-43,47.1l7,0l9.2-10.3l18.6,0L267,70.8l7,0l9-47.1L277.5,23.7z M270.6,54.2l-14.4,0l19-21.4L270.6,54.2z"/>
	<polygon points="333.1,30 336.6,23.8 313.4,23.7 310.1,23.7 307,23.7 281,70.8 284.1,70.8 287.4,70.8 310.6,70.8 314,64.5 
		290.9,64.5 298.6,50.6 318.3,50.6 321.7,44.3 302.1,44.3 310,30 	"/>
</g>
</svg>
