<?xml version="1.0" encoding="utf-8"?>
<!-- Generator: Adobe Illustrator 22.0.1, SVG Export Plug-In . SVG Version: 6.00 Build 0)  -->
<svg version="1.1" id="Layer_1" xmlns="http://www.w3.org/2000/svg" xmlns:xlink="http://www.w3.org/1999/xlink" x="0px" y="0px"
	 viewBox="0 0 500 500" style="enable-background:new 0 0 500 500;" xml:space="preserve">
<style type="text/css">
	.st0{fill:#00FF91;}
	.st1{fill:#64FFB8;}
</style>
<g>
	<polygon class="st0" points="249.5,268.1 183.9,315.8 208.9,238.7 143.3,191 224.4,191 249.5,113.9 274.6,191 355.7,191 
		290.1,238.7 315.1,315.8 	"/>
	<path class="st1" d="M249.5,126.8l20.4,62.7l1.8,5.5h5.8h65.9l-53.3,38.7l-4.7,3.4l1.8,5.5l20.4,62.7l-53.3-38.7l-4.7-3.4l-4.7,3.4
		l-53.3,38.7l20.4-62.7l1.8-5.5l-4.7-3.4L155.6,195h65.9h5.8l1.8-5.5L249.5,126.8 M249.5,100.9l-28,86.1H131l73.2,53.2l-28,86.1
		l73.2-53.2l73.2,53.2l-28-86.1L368,187h-90.5L249.5,100.9L249.5,100.9z"/>
</g>
</svg>
